<?xml version="1.0" standalone="no"?>
<!DOCTYPE svg PUBLIC "-//W3C//DTD SVG 20010904//EN"
 "http://www.w3.org/TR/2001/REC-SVG-20010904/DTD/svg10.dtd">
<svg version="1.0" xmlns="http://www.w3.org/2000/svg"
 width="300.000000pt" height="300.000000pt" viewBox="0 0 300.000000 300.000000"
 preserveAspectRatio="xMidYMid meet">
<metadata>
Created by potrace 1.10, written by Peter Selinger 2001-2011
</metadata>
<g transform="translate(0.000000,300.000000) scale(0.100000,-0.100000)"
fill="#000000" stroke="none">
<path d="M1270 2940 c0 -33 4 -60 10 -60 6 0 10 -12 9 -27 l-1 -28 -7 25 c-4
14 -6 -18 -3 -71 5 -111 -3 -199 -22 -224 -27 -37 -116 17 -116 69 0 18 13 35
48 60 86 64 88 66 47 46 -22 -11 -56 -33 -75 -51 -19 -17 -48 -38 -63 -46 -28
-14 -28 -15 -11 -34 9 -10 22 -19 29 -19 22 0 78 -93 77 -128 -1 -21 2 -30 9
-26 7 4 9 26 7 55 -3 27 -3 49 0 49 2 0 20 -13 39 -30 18 -16 38 -30 43 -30 5
0 23 15 40 33 30 31 31 31 45 13 20 -26 19 -34 -2 -32 -12 1 -17 -5 -15 -16 1
-10 -4 -31 -13 -47 -23 -46 -18 -50 11 -7 23 33 28 36 36 22 5 -9 11 -28 12
-41 1 -13 8 -31 15 -39 7 -8 9 -21 5 -27 -4 -7 -3 -9 4 -5 6 3 22 -5 35 -20
19 -20 25 -23 30 -11 3 8 -5 24 -19 36 -30 26 -30 31 1 89 52 101 112 135 183
106 17 -7 32 -15 32 -17 0 -19 -33 -77 -43 -76 -20 4 -67 -12 -67 -23 0 -5 4
-6 10 -3 5 3 19 8 30 10 15 3 20 -2 21 -18 0 -20 1 -21 8 -3 7 17 8 18 14 3 3
-9 2 -19 -3 -22 -6 -4 -10 -16 -11 -28 -1 -20 -2 -20 -9 3 -8 24 -8 24 -9 3
-1 -33 30 -107 39 -93 6 9 13 9 28 1 17 -9 20 -18 17 -44 -4 -26 -1 -22 21 23
26 56 51 84 93 101 13 5 21 12 18 15 -9 9 -49 -15 -88 -53 -35 -33 -38 -34
-65 -21 -30 14 -30 12 -23 108 1 14 5 27 9 30 10 7 50 86 50 99 0 6 -18 20
-40 31 -30 15 -59 20 -124 20 -90 0 -102 -7 -90 -55 8 -31 -34 -114 -48 -94
-7 10 -8 8 -5 -8 3 -13 3 -23 1 -23 -12 0 -21 46 -10 52 8 5 7 11 -2 20 -20
20 -14 59 15 96 15 20 20 32 12 27 -8 -5 -11 -4 -6 1 4 4 22 13 40 19 42 13
50 45 11 45 -18 0 -40 12 -61 32 -18 18 -33 27 -33 20 0 -7 5 -12 10 -12 6 0
10 -5 10 -10 0 -7 -6 -7 -20 0 -10 6 -17 16 -14 24 3 9 -6 18 -27 25 -18 6
-34 9 -36 7 -2 -2 11 -9 29 -15 24 -8 29 -14 20 -20 -11 -6 -7 -13 14 -30 28
-22 50 -28 39 -11 -9 15 4 12 21 -4 21 -22 18 -32 -23 -66 -21 -17 -29 -28
-18 -24 18 7 18 6 6 -9 -14 -18 -47 -24 -36 -7 9 15 -6 12 -19 -3 -9 -11 -18
-11 -46 -1 -24 8 -30 14 -20 18 13 5 15 33 14 169 -1 230 -3 267 -14 267 -6 0
-10 -27 -10 -60z m400 -396 c22 -9 40 -20 40 -24 0 -4 -17 1 -37 11 -29 15
-48 18 -78 13 -22 -4 -46 -7 -52 -7 -7 0 -13 -5 -13 -11 0 -6 -14 -27 -31 -46
l-31 -35 21 43 c18 34 19 42 7 42 -10 0 -13 6 -10 15 8 21 130 20 184 -1z
m-363 -10 c21 -6 21 -6 2 -25 -11 -11 -25 -16 -36 -12 -54 20 -24 52 34 37z"/>
<path d="M2023 2878 c0 -51 2 -80 4 -64 4 23 7 26 14 15 7 -9 8 6 5 46 -3 33
-5 68 -5 78 -1 9 -5 17 -10 17 -5 0 -9 -42 -8 -92z"/>
<path d="M461 2871 c-13 -10 -21 -23 -17 -30 5 -7 1 -9 -8 -5 -9 3 -16 1 -16
-5 0 -18 24 -12 46 12 43 46 40 63 -5 28z"/>
<path d="M324 2839 c-3 -5 2 -12 11 -15 9 -4 14 -13 11 -20 -3 -8 0 -14 7 -14
21 0 17 48 -4 53 -10 3 -22 1 -25 -4z"/>
<path d="M2050 2793 c0 -12 -7 -26 -16 -31 -11 -6 -13 -11 -5 -16 6 -4 11 -4
11 0 0 3 7 1 15 -6 13 -11 15 -8 15 16 0 16 -5 36 -10 44 -8 12 -10 11 -10 -7z"/>
<path d="M1915 2708 c-8 -32 2 -68 18 -68 15 0 15 49 0 75 -11 19 -12 18 -18
-7z"/>
<path d="M2027 2723 c-4 -3 -7 -15 -7 -25 0 -10 -3 -18 -7 -18 -5 0 -8 -14 -9
-30 -1 -34 11 -40 19 -9 5 17 9 19 25 10 18 -10 20 -7 24 29 2 22 0 40 -4 40
-5 0 -8 -13 -8 -30 0 -22 -4 -28 -15 -24 -10 4 -12 15 -8 35 5 29 3 35 -10 22z"/>
<path d="M148 2646 c52 -71 82 -95 52 -41 -18 32 -83 105 -94 105 -3 0 16 -29
42 -64z"/>
<path d="M208 2693 c-20 -5 -24 -18 -8 -28 6 -3 10 0 10 7 0 11 2 10 9 0 7
-11 9 -11 14 2 7 18 -1 24 -25 19z"/>
<path d="M1885 2658 c-7 -46 -25 -250 -24 -283 3 -89 5 -102 17 -98 6 3 12 -2
12 -11 0 -10 -6 -13 -17 -9 -15 5 -16 3 -5 -8 17 -18 15 -32 -3 -25 -29 11
-16 -43 19 -82 l35 -38 -35 -28 c-19 -15 -42 -25 -50 -22 -13 5 -13 9 1 35 14
28 14 31 -4 41 -13 6 -28 7 -44 1 -21 -8 -26 -6 -32 12 -4 12 -7 27 -6 34 1 6
-3 14 -9 18 -5 3 -10 -3 -10 -14 0 -18 -3 -19 -25 -9 -13 6 -23 16 -22 22 1 6
-7 10 -18 8 -15 -2 -17 -1 -6 7 8 5 21 7 30 4 9 -3 -9 11 -39 31 -56 36 -102
51 -64 20 17 -14 17 -15 1 -10 -12 4 -16 2 -11 -5 4 -7 1 -10 -7 -7 -8 3 -13
11 -11 17 1 6 -5 11 -13 11 -24 0 -17 -14 16 -34 18 -11 29 -13 24 -6 -5 8 -3
11 4 9 7 -3 13 -9 13 -14 0 -6 4 -16 10 -22 8 -10 4 -13 -16 -13 -14 0 -26 4
-26 8 0 5 -7 9 -15 9 -18 0 -20 -13 -3 -23 16 -10 68 -11 68 -1 0 5 6 5 13 1
8 -5 8 -2 -2 9 -24 29 6 19 36 -13 15 -16 38 -30 51 -30 33 0 36 -22 11 -80
-19 -44 -20 -53 -8 -61 8 -5 10 -9 6 -9 -4 0 -3 -9 3 -20 8 -15 7 -27 -5 -50
-14 -28 -14 -30 6 -40 25 -14 36 -6 20 14 -10 12 -8 17 11 27 13 7 28 19 35
28 14 20 20 15 28 -29 6 -35 6 -36 -41 -48 -33 -9 -50 -10 -58 -2 -17 17 -22
12 -23 -27 -1 -20 -4 -61 -7 -92 l-6 -56 16 45 c9 25 22 52 30 61 8 9 12 23 8
33 -5 13 -1 15 27 9 33 -6 49 -18 49 -37 0 -5 -7 -3 -15 4 -8 7 -15 11 -16 9
0 -2 -2 -23 -4 -45 -2 -23 -8 -52 -15 -64 -6 -12 -9 -28 -6 -37 4 -9 -1 -17
-14 -20 -19 -5 -29 -23 -12 -23 18 0 40 27 51 61 7 20 21 45 31 54 11 10 20
24 20 30 0 7 8 23 19 36 l18 23 27 -29 c15 -16 25 -34 22 -42 -5 -12 30 -103
39 -103 2 0 1 7 -2 17 -4 11 -3 14 5 9 7 -4 12 -14 12 -21 0 -15 29 -35 50
-35 6 0 8 4 5 10 -3 6 1 7 10 3 12 -4 13 -8 4 -13 -8 -6 -5 -11 11 -20 12 -6
24 -9 28 -6 9 9 52 -35 52 -54 0 -23 -39 -57 -76 -64 -30 -7 -30 -6 -26 31 3
37 3 37 -11 13 -7 -14 -11 -33 -9 -44 4 -15 11 -17 44 -12 22 4 51 14 65 23
20 13 25 14 21 3 -8 -25 -55 -52 -98 -56 -23 -2 -47 -7 -53 -11 -5 -3 -7 -2
-4 4 7 11 19 88 19 114 0 12 6 16 21 13 18 -4 19 -3 4 4 -10 4 -19 12 -20 17
-3 14 -67 45 -67 33 0 -6 -6 -5 -15 2 -10 8 -13 21 -8 38 4 18 3 23 -7 17 -9
-6 -10 -1 -5 16 4 13 4 21 -1 16 -4 -4 -9 -27 -10 -52 -2 -36 1 -47 17 -55 11
-6 25 -8 31 -4 6 4 8 3 5 -3 -4 -6 4 -18 17 -27 24 -15 24 -16 10 -72 -14 -50
-13 -58 1 -80 9 -14 20 -22 25 -19 5 3 11 1 15 -5 3 -5 12 -10 18 -10 7 0 6 4
-3 10 -13 9 -12 12 4 25 11 8 30 15 43 15 14 0 35 13 51 31 15 17 34 39 43 48
15 17 19 55 6 67 -3 4 10 26 29 50 20 24 33 48 29 54 -3 6 1 33 10 61 11 33
14 54 7 61 -6 6 -9 1 -9 -16 0 -60 -68 -138 -118 -138 -14 0 -25 -4 -25 -9 0
-15 44 -10 68 7 27 19 29 4 3 -20 -11 -10 -17 -25 -14 -37 3 -11 0 -19 -6 -19
-7 0 -9 5 -6 10 3 6 1 10 -6 10 -6 0 -20 10 -31 22 -16 19 -21 20 -28 8 -5 -8
-11 -12 -14 -10 -2 3 4 16 15 29 12 15 25 21 36 17 15 -5 15 -4 -1 9 -11 8
-29 12 -43 9 -31 -8 -29 7 5 30 15 11 24 16 20 11 -12 -13 40 -47 62 -40 11 3
20 11 20 16 0 5 -9 4 -19 -3 -15 -9 -23 -9 -35 1 -18 15 -22 51 -6 51 6 0 4
13 -5 29 -10 21 -12 32 -4 37 13 8 29 -13 29 -38 0 -10 4 -18 10 -18 5 0 9 3
9 8 -4 22 3 29 26 24 14 -2 25 -8 25 -13 0 -5 -10 -7 -22 -4 -19 5 -23 2 -24
-19 -1 -14 2 -23 7 -20 5 3 9 0 9 -6 0 -6 5 -8 11 -5 6 4 8 14 5 22 -3 8 -2
12 3 9 9 -6 34 41 27 52 -2 4 14 20 37 36 l40 30 -6 -38 c-3 -21 -14 -48 -24
-59 -17 -19 -17 -20 2 -9 69 36 89 105 56 193 -21 54 -85 129 -99 114 -3 -3 8
-17 26 -31 18 -15 29 -31 25 -37 -3 -7 -2 -9 2 -4 11 10 35 -47 35 -83 0 -35
-69 -85 -102 -74 -20 6 -19 9 21 43 l42 36 -16 32 c-17 33 -35 52 -35 35 0 -5
10 -22 22 -37 l22 -28 -25 -19 c-13 -10 -31 -25 -40 -32 -14 -12 -20 -11 -42
8 -31 26 -65 118 -37 101 5 -3 8 0 5 7 -3 7 4 24 13 36 17 22 20 23 35 7 9 -9
17 -25 17 -36 0 -10 5 -19 10 -19 12 0 12 0 -1 39 -6 17 -15 31 -20 31 -5 0
-9 12 -9 26 0 23 3 25 26 20 25 -7 25 -6 9 10 -11 11 -14 24 -10 38 17 54 17
67 0 86 -10 11 -23 20 -29 20 -6 0 0 -7 12 -16 12 -8 22 -21 22 -29 0 -7 -13
-1 -31 16 -17 16 -35 29 -40 29 -12 0 -11 -41 1 -60 8 -13 10 -12 10 3 0 23 9
22 32 -5 18 -21 18 -22 -13 -35 -39 -16 -63 2 -53 42 4 15 2 25 -5 25 -6 0
-11 -4 -11 -10 0 -5 -4 -10 -8 -10 -5 0 -9 17 -9 38 0 37 2 39 46 51 63 17 91
32 84 44 -4 6 0 8 11 4 10 -4 20 -7 22 -7 3 0 2 -5 -1 -11 -4 -6 3 -13 14 -16
19 -5 21 -11 17 -47 -3 -23 -19 -60 -36 -84 -38 -53 -34 -67 4 -17 31 40 56
96 56 122 -1 30 -46 73 -77 73 -15 0 -46 11 -68 25 -26 16 -54 24 -80 23 -26
0 -31 -2 -15 -5 70 -12 122 -43 72 -43 -10 0 -27 -7 -38 -16 -19 -15 -19 -15
1 -6 23 11 91 25 84 17 -9 -9 -100 -55 -108 -55 -5 0 -11 10 -14 22 -4 12 -9
20 -12 16 -3 -3 2 -25 11 -48 l17 -42 -34 -32 c-42 -40 -59 -36 -59 15 0 36 2
39 24 35 14 -3 30 2 37 10 8 10 8 14 0 14 -6 0 -11 -5 -11 -12 0 -9 -3 -9 -12
0 -7 7 -17 8 -30 1 -20 -11 -26 -83 -8 -94 6 -4 8 -16 4 -27 -4 -13 -2 -18 4
-14 15 9 21 -6 12 -30 -7 -17 -15 -20 -34 -17 -24 5 -26 10 -27 62 -1 31 -4
44 -6 29 -3 -22 -10 -28 -30 -28 -19 0 -24 4 -19 16 3 8 2 13 -2 10 -4 -2 -14
-1 -22 5 -11 6 -12 9 -2 9 7 0 10 5 7 10 -3 6 1 10 9 10 9 0 16 -5 16 -10 0
-17 35 10 60 47 13 19 36 41 52 49 15 8 28 21 28 29 0 8 5 15 10 15 6 0 10 5
10 10 0 6 -15 9 -32 9 -18 -1 -25 -3 -15 -6 29 -8 19 -20 -13 -15 -42 6 -46
19 -10 37 16 8 30 14 30 11 0 -2 27 24 61 59 58 60 67 85 33 85 -8 0 -12 -4
-9 -10 3 -5 1 -19 -5 -30 -8 -15 -21 -20 -49 -20 -36 0 -37 1 -33 30 3 19 0
30 -8 30 -7 0 -10 -8 -7 -19 4 -15 -2 -20 -28 -25 -18 -4 -39 -4 -46 -1 -9 3
-20 -6 -29 -27 l-14 -33 -4 44 c-4 51 1 59 25 40 17 -13 17 -13 1 6 -14 17
-16 34 -11 103 6 88 0 109 -12 40z m105 -188 c0 -5 -12 -10 -27 -10 -25 0 -26
-1 -8 -14 18 -13 17 -14 -8 -31 -28 -18 -64 -14 -51 6 5 8 9 7 14 -2 6 -8 9
-5 12 12 4 29 68 66 68 39z m46 -26 c-3 -9 -6 -19 -6 -24 0 -10 -86 -70 -101
-70 -20 0 -7 38 21 59 17 12 28 26 25 31 -3 6 0 7 8 4 8 -3 18 -1 22 5 10 18
38 13 31 -5z m-126 -59 c0 -15 -15 -35 -25 -35 -21 0 -14 36 7 37 10 1 18 0
18 -2z m65 -66 c4 -6 -3 -21 -16 -35 -12 -13 -18 -24 -13 -24 10 0 -17 -20
-27 -20 -11 0 -15 80 -4 84 20 9 54 6 60 -5z m96 -131 c-5 -14 -17 -28 -25
-31 -9 -4 -16 -11 -16 -17 0 -6 10 -2 22 10 24 22 45 21 39 -1 -12 -44 -12
-57 3 -62 9 -4 16 -2 16 3 0 15 32 11 54 -5 19 -15 19 -15 -5 -42 -13 -16 -27
-32 -32 -38 -5 -6 -6 6 -2 26 5 28 3 36 -9 36 -13 0 -14 -8 -9 -41 4 -23 7
-49 7 -58 0 -10 3 -18 7 -18 4 0 5 -10 1 -22 -3 -14 -2 -19 6 -14 17 10 15 1
-8 -43 -11 -23 -18 -55 -17 -81 1 -36 -3 -46 -32 -72 -19 -17 -39 -27 -48 -24
-8 3 -21 6 -28 6 -7 0 -23 16 -34 36 -28 46 -19 97 22 138 l29 30 29 -35 c32
-38 39 -32 10 10 -10 14 -24 45 -30 69 -7 23 -14 42 -17 42 -5 0 4 -59 11 -71
3 -4 -6 -14 -20 -23 -25 -17 -25 -16 -23 11 2 36 -34 176 -42 163 -4 -6 -6 5
-6 24 1 31 16 42 16 11 0 -7 12 -23 27 -35 27 -21 27 -21 34 -2 4 11 13 23 19
27 7 4 9 19 5 37 -6 24 -2 35 21 59 32 33 39 32 25 -3z m-261 -124 c0 -5 -9
-29 -20 -52 -21 -43 -40 -56 -35 -24 1 9 -1 26 -5 37 -5 12 -3 31 5 45 7 14
11 29 7 34 -3 5 7 1 21 -10 15 -10 27 -24 27 -30z m45 -36 c4 4 0 -7 -10 -24
-12 -21 -23 -30 -35 -27 -16 4 -16 7 -3 34 11 22 18 27 27 20 7 -6 17 -7 21
-3z m85 -5 c0 -7 -8 -13 -18 -13 -10 0 -29 -11 -42 -25 -13 -14 -28 -25 -34
-25 -5 0 2 12 16 28 14 15 24 32 21 38 -2 6 9 11 27 11 18 0 30 -5 30 -14z
m14 -66 c7 -27 6 -44 -2 -57 -9 -15 -8 -19 4 -22 13 -2 12 -7 -6 -25 -27 -30
-49 -30 -24 -1 16 19 16 20 1 9 -15 -12 -20 -11 -37 4 -11 10 -17 23 -12 29 4
6 7 27 6 46 -5 70 54 84 70 17z m387 -110 c-18 -18 -21 -3 -8 32 l12 34 3 -28
c2 -15 -1 -32 -7 -38z m-146 8 c40 -35 38 -48 -3 -19 -21 14 -22 14 -22 -10 0
-26 -19 -37 -21 -13 -4 39 -3 77 1 77 3 -1 23 -16 45 -35z"/>
<path d="M1953 2632 c-18 -2 -33 -8 -33 -13 0 -10 58 -3 69 7 8 7 -4 9 -36 6z"/>
<path d="M2040 2615 c10 -13 9 -15 -11 -16 -41 -2 -44 -3 -82 -29 -41 -28 -46
-40 -18 -40 11 0 22 -4 26 -10 3 -5 13 -6 21 -3 11 4 12 8 4 13 -7 5 -1 10 16
14 18 5 30 3 32 -3 2 -6 10 -11 17 -11 8 0 18 -8 24 -17 5 -10 12 -15 15 -12
12 12 -7 40 -35 55 -36 18 -36 22 -3 34 22 9 24 13 14 25 -7 8 -17 15 -22 15
-6 0 -5 -7 2 -15z m-40 -45 c0 -16 -7 -20 -32 -20 l-33 0 25 20 c32 25 40 25
40 0z"/>
<path d="M2540 2582 c-24 -11 -38 -27 -45 -49 -5 -18 -13 -33 -18 -33 -4 0 -5
5 -2 10 3 6 -4 10 -17 10 -20 0 -19 -2 12 -24 19 -13 37 -20 38 -15 2 5 8 7
13 3 5 -3 9 0 9 5 0 6 -4 11 -10 11 -18 0 -10 23 17 52 15 15 33 28 40 28 7 0
13 5 13 10 0 14 -10 13 -50 -8z"/>
<path d="M2619 2593 c-9 -2 -21 -15 -27 -27 -9 -20 -8 -24 6 -21 9 1 16 9 14
18 -1 9 9 19 25 25 27 10 14 14 -18 5z"/>
<path d="M2695 2545 c4 -11 10 -28 12 -37 6 -22 23 -24 23 -3 0 20 13 19 33
-3 25 -27 21 -74 -8 -102 -26 -24 -61 -30 -110 -17 -28 7 -28 7 -10 -6 37 -25
88 -20 120 12 16 16 35 27 41 24 7 -2 15 0 19 6 3 6 -1 11 -10 11 -11 0 -14 6
-9 24 4 19 -1 32 -20 50 -14 15 -33 26 -42 26 -9 0 -23 8 -31 18 -14 16 -14
16 -8 -3z"/>
<path d="M364 2531 c-1 -9 -5 -25 -9 -35 -8 -17 -6 -17 13 2 12 12 26 22 31
22 5 0 11 6 14 13 3 9 -3 14 -22 14 -17 0 -27 -6 -27 -16z"/>
<path d="M980 2519 c-51 -23 -100 -66 -100 -87 0 -8 16 -51 36 -95 40 -87 44
-118 22 -145 -14 -17 -40 -92 -32 -92 3 0 16 7 29 16 33 21 43 87 22 149 -9
25 -14 52 -10 60 3 9 -1 15 -11 15 -14 0 -18 6 -15 26 0 4 -5 11 -13 15 -8 6
-1 9 22 8 29 0 31 -2 15 -9 -32 -14 -3 -11 48 4 41 12 45 12 39 -3 -5 -14 -3
-14 10 -3 10 8 19 9 22 3 3 -5 0 -11 -6 -14 -7 -3 -3 -4 10 -4 28 2 28 8 -1
35 -16 15 -27 18 -37 12 -20 -13 -82 -12 -116 0 l-28 11 45 42 c24 23 47 41
51 39 15 -6 57 10 62 24 7 19 -11 17 -64 -7z"/>
<path d="M1060 2528 c0 -4 13 -8 29 -8 32 0 46 -13 35 -31 -10 -16 -12 -79 -3
-79 4 0 9 -8 11 -17 2 -10 3 16 3 57 l-1 75 -37 6 c-20 3 -37 2 -37 -3z"/>
<path d="M255 2495 c0 -19 6 -27 25 -32 14 -3 28 -11 32 -17 5 -7 8 -5 8 5 0
9 -11 21 -25 27 -14 6 -25 18 -25 27 0 8 -3 15 -7 15 -5 0 -8 -11 -8 -25z"/>
<path d="M1534 2468 c-16 -18 -22 -27 -14 -20 19 17 40 15 40 -4 0 -8 -4 -13
-9 -9 -5 3 -12 1 -16 -5 -4 -6 -11 -8 -16 -5 -5 4 -6 -6 -3 -22 3 -15 1 -50
-5 -78 -6 -33 -6 -53 0 -60 7 -7 10 -7 8 0 -2 9 7 86 17 139 4 23 14 34 14 15
0 -8 7 -4 16 10 13 18 18 20 25 10 7 -12 9 -12 9 -1 0 8 -9 16 -20 19 -25 7
-21 29 4 25 9 -2 26 -12 37 -23 20 -20 21 -20 34 -2 15 19 20 43 9 43 -4 0
-13 -8 -20 -17 -13 -17 -15 -17 -25 0 -16 27 -52 20 -85 -15z"/>
<path d="M183 2468 c-25 -28 -43 -59 -23 -41 7 6 19 9 28 5 11 -4 14 -1 9 10
-3 10 0 19 9 22 15 6 20 26 6 26 -5 0 -18 -10 -29 -22z"/>
<path d="M1009 2476 c-31 -14 -79 -51 -79 -62 0 -4 13 4 28 19 30 29 92 48 92
28 0 -6 6 -11 14 -11 8 0 17 -12 20 -26 9 -34 16 -27 9 9 -3 15 -10 27 -16 27
-6 0 -18 6 -26 14 -12 10 -22 11 -42 2z"/>
<path d="M470 2459 c-28 -15 -31 -19 -14 -19 14 0 24 -8 27 -22 4 -12 9 -19
13 -16 3 4 1 15 -4 25 -8 13 -7 22 5 35 19 21 18 21 -27 -3z"/>
<path d="M2713 2464 c-3 -9 0 -19 6 -24 9 -5 8 -9 -5 -14 -9 -3 -14 -9 -11
-12 3 -4 19 4 34 16 15 13 20 20 11 17 -22 -8 -35 12 -17 24 11 7 11 9 1 9 -7
0 -15 -7 -19 -16z"/>
<path d="M1319 2425 c-7 -19 -16 -30 -20 -24 -4 7 -11 5 -21 -5 -9 -8 -18 -13
-21 -10 -3 3 -4 -2 -2 -13 2 -10 4 -20 4 -23 1 -3 5 2 11 10 5 8 11 12 14 9 3
-2 1 -11 -4 -18 -7 -12 -12 -12 -34 2 -14 9 -29 17 -33 17 -4 0 -1 -5 7 -10 8
-5 16 -14 16 -20 1 -5 2 -15 3 -21 0 -5 5 -8 9 -5 5 3 8 -5 7 -17 -2 -12 -8
-21 -14 -19 -6 1 -11 -5 -11 -13 0 -22 -30 -18 -51 7 -22 25 -23 37 -4 61 7
11 11 26 8 35 -4 10 -2 13 5 8 6 -3 14 -1 18 5 4 7 3 9 -4 5 -5 -3 -12 0 -15
6 -2 7 -8 0 -12 -15 -5 -19 -12 -26 -22 -22 -11 3 -13 1 -10 -10 4 -9 -5 -23
-24 -36 -23 -16 -27 -24 -18 -30 8 -4 18 -1 25 9 7 9 15 14 19 10 4 -4 -4 -18
-18 -32 -34 -33 -39 -56 -22 -86 16 -28 21 -9 5 21 -8 15 -7 19 3 19 8 0 22
12 32 26 l17 26 21 -20 c12 -12 33 -25 47 -31 24 -9 24 -10 3 -10 -13 -1 -22
-7 -20 -13 1 -9 -10 -12 -32 -11 -19 1 -30 -2 -25 -5 6 -4 13 -15 17 -24 8
-22 27 -24 27 -3 0 9 11 21 25 27 14 6 25 15 25 20 0 4 5 8 11 8 6 0 9 -10 7
-22 -2 -13 -9 -22 -16 -21 -6 2 -12 -2 -12 -7 0 -19 32 -10 37 10 7 27 35 22
48 -8 12 -28 31 -29 38 -1 5 20 7 20 39 4 l33 -16 -23 20 c-17 15 -31 19 -53
14 -24 -4 -28 -3 -23 10 7 20 44 29 61 16 7 -6 18 -9 25 -7 8 3 4 9 -10 17
-19 10 -32 9 -74 -6 -39 -14 -52 -15 -55 -5 -3 6 -11 12 -18 12 -25 0 -25 18
0 46 26 28 31 25 37 -23 l3 -23 30 20 30 20 -26 0 c-15 0 -30 7 -33 16 -4 12
-2 15 9 10 13 -5 13 -2 -1 25 -8 17 -13 33 -10 37 3 3 6 2 6 -2 0 -4 13 2 29
13 16 12 34 21 39 21 6 0 8 9 5 21 -5 20 -6 19 -17 -3 -6 -13 -21 -24 -33 -26
-20 -3 -21 -1 -13 28 5 18 14 38 21 46 7 9 8 14 1 14 -6 0 -16 -16 -23 -35z"/>
<path d="M351 2409 c15 -24 29 -35 43 -34 12 1 21 6 21 11 0 5 4 14 8 21 5 8
-1 7 -20 -2 -26 -14 -29 -13 -51 13 l-23 27 22 -36z"/>
<path d="M1547 2393 c-10 -9 -9 -71 1 -77 5 -3 8 15 8 39 -1 25 -1 45 -2 45 0
0 -4 -3 -7 -7z"/>
<path d="M1607 2393 c-4 -3 -7 -27 -7 -52 -1 -43 -2 -45 -15 -27 -8 11 -15 15
-15 9 0 -13 30 -39 30 -27 0 5 4 2 10 -6 15 -24 21 -6 9 29 -6 17 -9 43 -6 56
5 27 4 29 -6 18z"/>
<path d="M1001 2348 c-1 -10 6 -18 15 -18 8 0 12 -5 9 -10 -4 -6 -10 -8 -15
-5 -4 3 -11 -1 -14 -7 -3 -10 -9 -8 -19 4 -8 10 -17 15 -21 11 -3 -3 1 -14 10
-24 11 -12 17 -39 18 -82 1 -51 4 -63 15 -59 10 4 12 1 6 -9 -6 -10 -5 -11 3
-4 8 8 8 25 -3 65 -18 69 -19 81 -1 74 7 -3 18 -24 23 -47 9 -33 11 -36 12
-15 0 15 -4 39 -11 53 -9 19 -9 28 0 37 16 16 15 28 -2 28 -8 0 -17 6 -19 13
-3 7 -6 5 -6 -5z"/>
<path d="M1060 2330 c-22 -22 -23 -26 -9 -55 8 -17 9 -16 6 8 -3 15 -1 27 4
27 5 0 13 9 19 20 6 11 8 20 5 20 -3 0 -14 -9 -25 -20z"/>
<path d="M1320 2325 c0 -15 33 -45 48 -45 7 0 12 -5 12 -11 0 -7 9 -9 22 -6
11 3 34 -1 50 -9 17 -9 32 -13 36 -10 7 8 -29 47 -39 41 -4 -3 -10 3 -12 12
-4 17 -5 17 -6 1 -1 -18 -21 -26 -21 -9 0 5 -9 13 -20 16 -11 4 -18 10 -15 15
3 4 -9 10 -25 12 -19 3 -30 0 -30 -7z"/>
<path d="M1197 2307 c-9 -24 6 -37 27 -22 10 8 15 18 11 24 -9 15 -32 14 -38
-2z"/>
<path d="M312 2290 c-15 -24 -16 -60 -1 -60 13 0 65 40 53 40 -5 0 0 7 10 15
27 21 6 19 -23 -2 -23 -16 -24 -16 -19 5 8 27 -3 28 -20 2z"/>
<path d="M2439 2233 c-14 -3 -15 -8 -5 -28 6 -14 18 -25 26 -24 10 0 11 2 3 6
-8 3 -11 14 -7 29 3 13 5 23 3 23 -2 -1 -11 -3 -20 -6z"/>
<path d="M790 2217 c-25 -13 -36 -54 -12 -49 6 1 12 -2 12 -8 0 -5 6 -10 13
-10 6 1 2 9 -10 19 -16 14 -19 21 -10 30 6 6 18 11 27 11 13 0 13 -1 0 -10 -8
-5 -10 -10 -4 -10 5 0 19 6 29 14 17 12 25 12 54 0 45 -19 51 -17 21 6 -29 22
-83 26 -120 7z"/>
<path d="M691 2160 c-28 -22 -60 -53 -73 -70 -13 -18 -31 -30 -45 -30 l-23 0
21 -37 c11 -21 29 -45 40 -55 10 -9 19 -21 19 -27 0 -12 49 -35 57 -27 3 2 -3
16 -12 29 -19 30 -8 61 25 72 24 7 26 28 5 45 -19 16 -35 4 -35 -26 0 -27 -3
-28 -31 -14 -45 24 -1 102 84 146 15 8 27 19 27 24 0 15 -5 13 -59 -30z m-72
-161 c-8 -5 -6 -9 7 -12 17 -4 17 -5 -2 -6 -12 0 -25 6 -28 15 -9 23 3 37 20
23 11 -9 12 -14 3 -20z"/>
<path d="M1485 2166 c-4 -19 -5 -42 -2 -53 3 -12 5 -9 6 10 1 24 5 27 36 27
40 0 46 -16 11 -30 -25 -9 -42 -66 -22 -73 7 -3 11 9 11 27 0 24 4 30 18 28
10 -2 17 3 17 13 0 9 8 19 17 22 15 6 15 7 -3 14 -10 4 -33 8 -51 8 -26 1 -30
4 -26 21 3 11 3 20 0 20 -4 0 -9 -15 -12 -34z"/>
<path d="M374 2143 c-62 -66 -104 -145 -84 -158 14 -8 39 5 45 25 3 10 13 16
23 14 10 -2 27 9 41 27 24 31 24 31 3 25 -21 -7 -21 -6 -11 18 7 14 16 26 21
26 11 0 10 38 -2 45 -5 3 -22 -7 -36 -22z m0 -55 c-4 -13 -8 -27 -9 -33 0 -5
-10 -11 -23 -13 -21 -3 -21 -2 -10 25 12 27 39 55 46 48 2 -2 0 -14 -4 -27z"/>
<path d="M311 2123 c-28 -34 -38 -53 -27 -53 2 0 20 20 40 45 21 25 33 45 27
45 -5 0 -23 -17 -40 -37z"/>
<path d="M1114 2125 c-9 -18 -9 -24 0 -22 6 1 12 -16 14 -43 2 -25 8 -49 13
-55 10 -10 6 32 -10 112 l-6 32 -11 -24z"/>
<path d="M766 2097 c-34 -32 -46 -57 -27 -57 4 0 16 11 27 24 10 14 21 23 25
21 7 -5 21 36 15 42 -2 2 -19 -12 -40 -30z"/>
<path d="M978 2117 c-17 -14 -9 -45 9 -34 5 3 10 0 10 -8 0 -8 -4 -15 -9 -15
-4 0 -8 -5 -8 -10 0 -6 8 -5 19 2 14 9 17 16 11 29 -5 9 -6 19 -3 23 3 3 1 6
-6 6 -7 0 -9 5 -6 10 8 13 4 12 -17 -3z"/>
<path d="M1684 2115 c3 -8 1 -15 -5 -15 -6 0 -7 -4 -4 -10 3 -5 2 -10 -3 -10
-17 0 -22 13 -10 29 7 9 0 5 -15 -8 -27 -25 -39 -43 -14 -22 8 6 17 8 21 4 9
-10 -35 -54 -47 -46 -6 3 -7 1 -3 -5 3 -6 -3 -17 -15 -25 l-21 -15 21 -12 c12
-6 19 -16 15 -21 -4 -6 -13 -4 -25 7 -17 15 -19 16 -14 2 6 -14 26 -28 45 -32
25 -5 29 -19 14 -47 -12 -23 -18 -28 -28 -20 -10 8 -18 7 -33 -6 -10 -10 -14
-15 -8 -12 31 19 63 -4 43 -32 -8 -11 -9 -10 -4 4 6 19 -18 24 -30 5 -5 -7 -3
-8 6 -3 8 5 11 3 8 -6 -3 -8 -10 -13 -16 -12 -5 1 -9 -5 -8 -15 0 -9 -4 -16
-10 -15 -6 1 -11 -5 -12 -13 -1 -8 -3 -21 -4 -29 -1 -11 -5 -12 -11 -6 -7 7
-15 7 -24 0 -19 -17 -16 -28 7 -24 12 2 18 0 15 -6 -4 -5 -11 -6 -17 -3 -7 4
-8 2 -4 -4 4 -7 4 -17 0 -23 -4 -7 -12 2 -19 22 -9 27 -9 38 1 56 12 18 11 24
0 36 -8 7 -16 22 -19 33 -3 10 -5 -20 -4 -68 1 -65 4 -88 14 -88 7 0 13 -4 13
-10 0 -5 -4 -10 -10 -10 -5 0 -10 -7 -10 -16 0 -25 15 -9 58 63 22 38 51 80
63 94 62 68 64 70 46 63 -16 -6 -16 -3 -6 20 9 18 16 23 24 16 7 -6 16 -5 23
2 9 9 12 3 13 -27 1 -26 3 -31 6 -16 8 40 -6 68 -43 90 -20 12 -34 25 -31 28
4 3 14 0 24 -8 10 -8 6 0 -9 18 l-26 32 33 37 c22 24 38 34 47 28 7 -4 10 -3
5 1 -4 5 0 18 8 31 13 20 12 23 -1 28 -12 4 -15 2 -10 -9z"/>
<path d="M1390 2096 c-5 -15 -13 -52 -16 -81 -6 -51 -8 -54 -28 -44 -21 10
-21 10 -1 -6 11 -9 27 -14 36 -12 12 3 15 -1 12 -14 -4 -16 -1 -19 18 -16 13
2 23 8 21 13 -2 5 -9 8 -16 7 -7 -2 -13 10 -14 28 -2 29 0 31 23 27 14 -3 25
-2 25 3 0 4 3 14 6 23 3 9 1 16 -5 16 -6 0 -11 -7 -11 -15 0 -11 -9 -15 -29
-13 -27 2 -29 5 -24 33 3 16 10 38 15 48 5 10 7 21 4 24 -3 3 -10 -6 -16 -21z"/>
<path d="M902 2074 c-8 -8 -10 -23 -7 -35 6 -17 4 -20 -6 -13 -11 6 -12 5 -3
-7 10 -12 26 -119 18 -119 -2 0 -12 17 -23 38 -11 20 -20 33 -21 29 0 -5 5
-17 10 -27 7 -13 7 -21 0 -25 -7 -4 -7 -13 0 -24 10 -20 -4 -41 -27 -41 -7 0
-13 -6 -13 -14 0 -8 -6 -17 -12 -19 -8 -3 -6 -6 5 -6 9 -1 17 4 17 10 0 6 12
20 26 31 14 11 23 26 20 33 -3 8 2 11 15 8 23 -6 22 -3 4 -40 -8 -17 -29 -35
-50 -43 -19 -8 -35 -18 -35 -23 0 -14 -43 -46 -62 -47 -20 0 -46 -40 -27 -40
8 0 8 -4 -1 -15 -7 -8 -17 -12 -24 -8 -6 3 -8 3 -4 -2 4 -4 2 -15 -5 -24 -7
-9 -2 -8 15 4 15 11 30 28 34 38 7 21 28 17 32 -6 2 -10 -3 -17 -12 -17 -8 0
-23 -11 -33 -24 -18 -22 -59 -43 -76 -38 -5 2 -7 -3 -5 -10 6 -16 -28 -48 -50
-48 -11 0 -27 -10 -38 -21 -19 -22 -19 -22 1 -11 11 6 37 19 58 28 21 9 42 25
48 35 5 11 16 19 24 19 8 0 22 12 32 26 9 14 27 30 40 35 17 6 23 16 23 38 0
21 7 34 22 42 12 7 29 21 38 32 11 13 28 20 48 19 25 0 32 4 32 18 0 10 -5 22
-10 25 -6 4 -4 12 5 22 11 10 13 19 6 27 -6 7 -10 26 -9 42 1 16 -1 42 -5 57
-6 22 -5 27 5 21 10 -5 11 -4 1 7 -18 18 -16 32 3 25 12 -5 14 -1 9 17 -10 32
-18 37 -33 21z"/>
<path d="M1053 2078 c-16 -21 -23 -48 -13 -48 6 0 10 -5 10 -11 0 -6 -7 -9
-15 -5 -8 3 -15 1 -15 -4 0 -17 25 -11 43 10 21 25 22 37 2 20 -12 -10 -13 -7
-5 19 9 34 8 38 -7 19z"/>
<path d="M1215 2079 c-4 -5 -19 -15 -33 -21 -20 -7 -23 -12 -12 -16 38 -12 41
-25 14 -43 -15 -10 -31 -16 -36 -13 -4 3 -8 1 -8 -5 0 -14 21 -19 56 -14 25 4
32 1 36 -15 3 -12 0 -23 -7 -26 -7 -2 -15 -16 -17 -30 -3 -14 -1 -23 3 -20 12
7 11 -3 -2 -27 -5 -11 -14 -17 -19 -14 -15 9 -40 67 -40 93 0 49 -8 16 -15
-57 l-6 -74 25 16 c23 16 25 15 40 -8 17 -26 8 -39 -21 -28 -10 3 -6 -3 10
-17 34 -27 23 -49 -14 -30 -20 9 -20 8 4 -10 33 -27 34 -38 3 -50 -24 -9 -75
-70 -59 -70 4 0 1 -5 -8 -10 -23 -13 -13 -55 17 -75 14 -9 24 -11 24 -5 0 6 5
8 11 5 6 -4 5 2 -2 13 -10 17 -10 23 0 36 11 13 11 19 1 31 -10 13 -11 18 -1
28 10 9 19 5 42 -20 31 -36 39 -40 40 -20 0 6 14 23 31 36 l31 25 19 -23 c18
-23 18 -24 0 -55 -10 -17 -22 -43 -25 -57 -8 -31 -87 -81 -87 -55 0 9 -8 16
-18 16 -10 0 -24 6 -31 13 -10 10 -15 8 -27 -7 -8 -11 -14 -27 -13 -35 0 -11
3 -9 9 5 14 36 30 39 24 4 -4 -20 -3 -30 5 -30 7 0 9 -5 5 -11 -4 -8 -9 -7
-15 2 -4 7 -12 10 -16 5 -4 -5 -2 -11 4 -13 10 -4 10 -10 2 -25 -11 -20 -12
-20 -30 8 -11 16 -19 43 -18 59 2 60 -1 85 -12 85 -8 0 -10 -21 -7 -70 3 -43
2 -67 -4 -64 -6 4 -5 -3 1 -15 14 -25 23 -28 14 -3 -6 15 -4 15 16 -2 16 -15
18 -21 9 -28 -10 -6 -10 -8 0 -8 6 0 12 -5 12 -12 0 -6 9 -22 21 -34 18 -19
25 -21 49 -12 16 5 37 22 46 36 15 23 15 25 1 14 -13 -12 -16 -10 -19 15 -4
41 -42 44 -62 5 -8 -16 -14 -31 -13 -33 1 -2 -3 2 -10 10 -10 11 -7 20 13 47
14 18 35 36 46 40 23 7 58 -21 58 -47 0 -10 5 -21 12 -25 6 -4 8 -3 5 3 -7 12
39 24 59 16 19 -7 26 -35 12 -45 -20 -12 -27 -9 -23 10 2 11 -3 19 -10 19 -7
0 -11 -6 -9 -12 5 -12 -44 -80 -73 -102 -9 -7 -31 -13 -49 -13 -26 0 -37 7
-53 34 -12 18 -21 41 -21 50 0 9 -7 19 -15 22 -8 4 -15 12 -15 20 0 8 -6 14
-14 14 -17 0 -29 41 -19 67 5 16 4 16 -14 -2 -19 -19 -20 -45 -2 -45 5 0 9 -7
9 -15 0 -8 5 -15 12 -15 7 0 6 -5 -4 -12 -47 -39 -85 -168 -44 -152 10 4 16
-5 21 -26 4 -17 4 -34 1 -37 -3 -4 -6 2 -6 13 0 11 -9 25 -20 32 -11 7 -20 8
-20 2 0 -6 -9 -6 -25 0 -16 6 -25 6 -25 0 0 -6 8 -10 18 -10 10 0 24 -6 31
-12 11 -10 13 -10 7 0 -4 6 -3 12 3 12 17 0 23 -38 9 -59 -9 -16 -10 -23 -1
-32 9 -9 11 -6 6 12 -4 16 -2 21 4 14 6 -5 13 -30 17 -55 4 -28 3 -40 -3 -31
-9 13 -12 0 -28 -103 -3 -21 -13 -46 -23 -56 -10 -10 -22 -39 -25 -64 -7 -42
-25 -63 -46 -50 -5 3 -9 -2 -9 -10 0 -12 5 -13 29 -5 24 8 30 18 35 52 7 43
30 87 45 87 4 0 15 -17 23 -39 11 -28 22 -39 42 -43 22 -5 29 -1 37 19 5 13 9
31 9 39 0 8 5 12 10 9 16 -10 11 -44 -10 -65 -22 -22 -19 -40 17 -83 23 -28
30 -61 16 -70 -5 -2 -2 -2 5 -1 6 2 12 0 13 -4 4 -49 2 -102 -3 -102 -5 0 -8
-6 -8 -13 0 -8 -18 -32 -40 -55 -33 -33 -40 -47 -40 -80 0 -35 3 -39 19 -35
13 3 21 -2 26 -17 4 -11 12 -19 18 -17 7 2 21 0 32 -6 20 -10 20 -10 1 12 -11
11 -26 21 -35 21 -11 0 -12 3 -3 12 8 8 15 8 25 -1 8 -6 22 -9 31 -5 11 4 16
1 16 -10 0 -20 16 -21 24 -1 3 8 2 15 -3 15 -8 0 -22 72 -23 118 0 12 -4 22
-8 22 -4 0 -8 35 -8 77 0 48 -4 79 -11 81 -24 8 -9 17 29 17 37 1 40 -1 45
-30 4 -16 7 -54 8 -82 1 -30 7 -55 14 -57 9 -4 9 -14 2 -38 -11 -41 -11 -41 1
-33 6 4 10 -5 9 -22 -3 -39 54 -201 105 -303 31 -62 49 -86 64 -88 12 -2 22 1
22 6 0 12 -30 37 -30 26 -1 -16 -78 153 -105 228 -28 82 -66 295 -66 377 0 30
-5 63 -10 74 -8 14 -8 18 0 13 7 -5 11 6 11 31 0 28 -3 34 -10 23 -8 -12 -10
-9 -10 13 0 15 6 27 13 27 6 1 21 15 32 33 11 17 29 33 40 35 37 7 40 21 9 53
-26 27 -29 37 -30 100 0 38 -4 72 -7 76 -4 3 -7 -19 -7 -50 0 -31 -3 -56 -7
-56 -22 4 -33 -2 -27 -13 4 -7 3 -9 -1 -5 -13 11 -15 37 -4 37 6 0 6 7 0 18
-6 11 -6 24 0 35 12 20 4 37 -16 37 -13 0 -14 -47 -3 -130 3 -22 -1 -25 -31
-28 -23 -2 -40 3 -56 18 -26 24 -51 101 -41 126 4 11 2 15 -8 11 -8 -3 -18 4
-24 17 -8 17 -5 27 14 49 13 16 24 35 24 43 0 11 7 9 30 -8 28 -21 32 -21 63
-6 33 16 34 15 57 -14 19 -24 28 -28 53 -22 20 4 27 3 23 -5 -4 -6 -2 -11 3
-11 6 0 11 6 11 13 0 9 3 8 9 -2 6 -10 10 -10 16 -1 4 6 13 9 21 6 11 -4 12
-2 4 14 -14 27 -13 29 16 41 26 9 26 10 9 29 -10 11 -23 20 -28 20 -6 0 -2 -8
7 -19 15 -17 15 -19 1 -25 -25 -9 -32 -7 -15 4 13 9 12 12 -5 26 -16 11 -17
17 -7 23 11 7 10 11 -2 24 -21 20 -20 26 5 54 l22 22 -33 -9 c-19 -5 -35 -9
-36 -7 -1 1 13 28 31 60 23 41 34 54 38 43 4 -9 1 -27 -5 -41 -8 -18 -8 -28 1
-39 7 -8 10 -19 7 -24 -6 -11 29 -88 44 -97 6 -4 8 -11 5 -16 -4 -5 3 -9 14
-9 19 0 69 -65 58 -76 -2 -3 -18 7 -35 21 -16 14 -34 25 -39 25 -5 0 -16 -16
-25 -35 -8 -19 -12 -35 -7 -35 5 0 11 11 15 25 7 28 41 35 50 10 4 -8 12 -15
20 -15 8 0 23 -9 34 -20 11 -11 20 -17 20 -12 1 4 10 -11 22 -33 31 -58 35
-160 10 -255 -18 -69 -22 -75 -43 -72 -13 2 -39 19 -58 38 -33 32 -52 43 -50
27 1 -5 1 -21 0 -38 -2 -29 -3 -29 -27 18 -14 27 -23 54 -21 60 3 7 12 -4 20
-23 9 -19 16 -28 17 -19 0 9 -9 28 -20 42 -11 14 -20 35 -20 46 0 12 -4 21
-10 21 -21 0 -8 -68 25 -134 20 -37 34 -75 33 -85 -2 -9 3 -15 10 -13 8 1 11
-2 8 -7 -4 -5 -2 -12 3 -16 12 -7 91 17 91 28 0 11 -63 -2 -71 -15 -8 -13 -32
74 -27 102 3 23 4 22 42 -13 26 -25 48 -37 67 -37 16 0 28 3 27 8 -3 13 13 86
28 124 8 22 11 51 7 69 -4 23 -3 30 5 25 7 -4 12 -1 12 6 0 28 39 -53 51 -107
11 -51 14 -55 22 -34 6 13 11 30 13 38 3 16 -75 117 -88 113 -5 -1 -8 3 -7 10
3 19 -13 78 -20 78 -4 0 -7 10 -8 22 -1 12 -11 29 -23 38 -11 9 -26 34 -33 55
-14 46 -67 145 -77 145 -14 0 -2 -52 17 -73 18 -21 18 -21 -7 -6 -34 21 -61
77 -54 112 4 19 1 29 -10 33 -8 3 -12 12 -9 21 4 11 13 2 30 -31 13 -25 26
-46 28 -46 3 0 -14 38 -37 85 l-43 85 -12 -36 c-18 -51 -51 -102 -75 -115 -17
-9 -24 -7 -42 12 -13 14 -14 18 -3 10 15 -12 20 -11 38 5 12 11 19 28 18 44
-2 18 8 36 38 65 39 39 40 42 47 128 5 63 4 87 -4 82 -5 -3 -8 -10 -5 -15 3
-4 1 -19 -4 -32 l-10 -23 0 25 c-1 14 3 40 8 57 5 18 6 35 2 38 -5 2 -9 15
-10 27 -1 13 -2 34 -4 48 -1 15 3 24 10 23 7 -2 10 4 6 13 -5 13 -8 13 -15 2
-7 -9 -8 -2 -4 20 4 24 2 32 -9 32 -8 0 -14 -3 -14 -7 4 -24 -5 -42 -38 -78
-32 -35 -37 -38 -43 -20 -4 10 -2 32 4 47 8 21 7 34 -2 49 -14 21 -10 33 11
35 7 0 20 2 30 2 24 3 21 29 -4 37 -11 4 -23 4 -26 1 -4 -3 1 -6 10 -6 10 0
17 -4 17 -10 0 -5 -6 -10 -14 -10 -8 0 -22 -3 -31 -7 -15 -5 -16 -3 -6 15 9
17 9 21 -2 16 -7 -2 -22 5 -32 16 -15 16 -17 25 -9 38 16 26 54 28 61 3 3 -11
12 -19 21 -19 10 0 25 -3 35 -7 17 -7 18 -6 6 13 -8 13 -20 20 -30 17 -10 -3
-19 1 -23 10 -6 17 -51 20 -61 4z m31 -325 c-4 -57 -3 -83 4 -79 6 3 13 -1 16
-10 5 -11 10 -13 19 -5 9 8 15 8 20 0 3 -5 0 -10 -8 -10 -8 0 -20 -7 -27 -15
-15 -19 -31 -10 -23 12 5 13 1 12 -16 -4 -19 -18 -27 -20 -42 -10 -23 14 -25
32 -3 23 8 -3 12 -2 9 4 -5 9 6 14 26 12 6 -1 1 136 -6 156 -3 7 4 12 17 12
20 0 21 -3 14 -86z m99 78 c6 -4 10 -55 10 -118 l0 -110 -27 37 c-14 20 -39
39 -54 43 l-27 7 22 15 c19 13 20 18 9 32 -11 12 -11 16 0 20 9 3 10 8 2 17
-8 9 -5 19 12 39 24 27 36 31 53 18z m-195 -263 c-7 -11 -9 -27 -6 -35 4 -12
2 -12 -14 -4 -34 18 -19 49 28 59 1 1 -2 -8 -8 -20z m58 -236 c3 -30 -18 -50
-39 -37 -13 8 -11 48 3 62 19 19 33 9 36 -25z m-148 -48 c7 -8 17 -12 24 -9 6
3 3 -1 -7 -9 -10 -9 -15 -21 -11 -31 3 -9 2 -22 -3 -29 -6 -6 -9 -32 -9 -57 2
-44 13 -75 51 -135 10 -16 15 -27 11 -23 -5 4 -17 3 -27 -2 -12 -7 -20 -7 -24
0 -4 6 -11 8 -16 5 -5 -4 -9 -1 -9 4 0 15 13 14 30 -1 7 -7 3 2 -10 21 -17 25
-25 54 -30 108 -3 47 -2 73 5 74 5 0 0 5 -13 11 -19 9 -22 17 -17 37 12 48 33
62 55 36z m304 -24 c-2 -59 -3 -61 -32 -61 -33 0 -75 28 -54 36 6 3 12 17 12
31 0 20 4 23 20 18 11 -3 20 -2 20 4 0 5 8 9 18 8 13 -1 17 -9 16 -36z m-303
-306 c30 -16 47 -55 32 -77 -4 -7 -13 -29 -18 -48 l-11 -34 -22 22 c-12 12
-22 34 -22 48 0 15 -7 32 -16 38 -15 11 -14 16 1 52 10 21 19 33 22 26 3 -7
18 -19 34 -27z m246 3 c25 -28 26 -58 2 -58 -10 0 -23 -9 -29 -20 -21 -38 -45
-23 -43 28 1 10 -2 10 -13 1 -11 -9 -14 -9 -14 1 0 6 9 14 20 17 11 3 18 9 15
13 -6 9 21 40 34 40 4 0 17 -10 28 -22z m-127 -30 c0 -6 8 -20 17 -30 16 -18
15 -20 -14 -50 l-31 -31 -12 23 c-7 13 -13 40 -14 60 -2 34 0 37 26 38 15 0
28 -4 28 -10z m50 -163 l0 -93 -35 0 c-33 0 -35 2 -35 32 0 34 -7 49 -21 41
-4 -3 -4 -20 1 -38 9 -29 8 -30 -5 -13 -8 11 -15 25 -15 30 1 36 85 150 103
139 4 -2 7 -46 7 -98z m-69 -321 c-7 -16 -17 -24 -26 -20 -8 3 -17 1 -20 -4
-4 -6 7 -10 23 -10 43 0 57 -22 32 -51 l-19 -24 -1 22 c0 12 -5 25 -12 29 -6
4 -8 3 -5 -3 4 -6 -2 -18 -13 -28 -18 -16 -20 -16 -20 -2 0 9 5 19 12 23 7 5
4 10 -11 16 l-22 8 20 22 c12 12 21 26 21 30 0 5 5 6 11 3 6 -4 13 3 16 15 4
15 9 18 16 11 7 -7 7 -19 -2 -37z"/>
<path d="M1447 2070 c-3 -11 -1 -20 4 -20 5 0 9 6 10 13 0 6 5 3 10 -8 8 -18
8 -18 6 4 -3 31 -23 38 -30 11z"/>
<path d="M1545 2016 c-22 -13 -42 -23 -46 -21 -3 2 -3 -9 -1 -26 2 -16 6 -29
8 -29 2 0 10 16 19 36 8 19 19 33 25 29 5 -3 10 -1 10 4 0 6 7 11 15 11 8 0
15 5 15 10 0 13 1 14 -45 -14z"/>
<path d="M241 2003 c-1 -26 -8 -36 -32 -48 -17 -9 -28 -19 -25 -23 4 -3 12 0
18 6 17 17 26 15 30 -5 2 -11 7 -5 14 17 6 19 7 46 3 60 -7 23 -7 23 -8 -7z"/>
<path d="M1077 1990 c-5 -23 -3 -38 6 -47 11 -11 12 -7 9 24 -5 57 -8 61 -15
23z"/>
<path d="M816 1978 c-25 -50 -19 -62 14 -25 33 38 38 57 16 57 -8 0 -22 -14
-30 -32z"/>
<path d="M763 1978 c-24 -12 -30 -32 -12 -43 6 -4 13 2 16 14 3 12 13 21 25
21 10 0 16 5 13 10 -7 12 -13 12 -42 -2z"/>
<path d="M1456 1925 c-4 -25 -11 -45 -17 -45 -5 0 -9 -7 -9 -15 0 -8 -9 -19
-20 -25 -17 -9 -30 -60 -15 -60 7 0 45 39 45 47 0 3 -9 -2 -20 -12 -17 -16
-20 -16 -20 -2 0 9 9 19 20 22 11 3 20 14 20 23 0 14 2 14 9 3 6 -10 11 4 16
43 9 68 0 87 -9 21z"/>
<path d="M715 1912 c2 -3 -5 -18 -16 -33 -11 -16 -15 -29 -9 -29 8 0 8 -6 -1
-21 -8 -16 -8 -20 1 -14 6 4 18 -1 26 -11 12 -16 12 -14 -1 17 -13 34 -13 38
4 53 18 17 20 16 31 -18 6 -20 18 -36 25 -36 7 0 1 -13 -15 -30 -15 -16 -36
-30 -46 -30 -14 0 -15 -3 -7 -11 15 -15 67 16 57 32 -3 6 3 13 14 16 11 2 22
13 25 23 3 12 0 17 -8 13 -10 -3 -12 2 -8 18 5 18 3 21 -10 16 -9 -3 -19 -2
-22 3 -3 4 0 10 7 12 19 7 -4 33 -29 34 -13 0 -21 -2 -18 -4z"/>
<path d="M448 1888 c-21 -12 -38 -30 -38 -39 0 -10 -4 -21 -10 -24 -5 -3 -10
-10 -10 -16 0 -5 5 -9 10 -9 6 0 10 7 10 16 0 8 5 12 11 9 6 -4 8 -13 5 -21
-3 -7 -1 -16 4 -19 6 -4 8 -18 4 -33 -5 -26 -5 -26 10 -8 8 10 12 24 8 30 -12
19 -11 40 1 49 8 6 6 7 -5 3 -19 -6 -23 10 -9 33 8 12 73 40 94 41 5 0 -1 -13
-13 -30 -12 -16 -16 -30 -10 -30 6 0 13 7 16 15 5 13 9 13 22 3 12 -10 14 -10
8 0 -4 6 -3 12 2 12 6 0 12 -7 16 -15 3 -8 12 -15 20 -15 8 0 17 -15 20 -36 5
-23 14 -38 29 -43 32 -12 37 -5 34 45 -3 51 -20 68 -51 52 -16 -9 -23 -7 -36
9 -8 11 -22 17 -29 15 -8 -3 -11 0 -7 6 3 5 -1 13 -10 16 -28 11 -58 6 -96
-16z"/>
<path d="M986 1885 c4 -23 3 -26 -5 -15 -10 13 -11 13 -12 0 -5 -53 -7 -62
-16 -71 -11 -11 -6 -56 7 -64 5 -3 6 4 3 15 -3 12 2 29 12 40 11 13 14 20 6
20 -8 0 -7 9 5 29 14 24 15 34 6 53 -11 22 -11 21 -6 -7z"/>
<path d="M1070 1881 c0 -11 -4 -22 -9 -25 -4 -3 -11 -34 -15 -68 -6 -57 -33
-168 -35 -143 -1 6 -6 3 -12 -5 -8 -11 -9 -8 -4 15 6 29 6 29 -9 10 -15 -20
-15 -20 -16 3 0 12 5 22 10 22 6 0 10 21 9 48 l-1 47 -9 -44 c-5 -24 -10 -46
-13 -48 -8 -8 -33 51 -28 66 2 8 0 11 -6 7 -6 -3 -12 0 -15 6 -2 7 -4 2 -4
-12 0 -14 -7 -65 -16 -114 -9 -49 -14 -92 -12 -97 3 -4 1 -10 -5 -14 -5 -3
-10 -11 -10 -17 0 -6 7 -5 17 3 15 12 16 12 10 -5 -7 -17 5 -35 23 -36 4 0 4
32 1 74 -1 4 -8 5 -17 2 -11 -4 -14 -1 -12 12 2 9 11 16 21 16 9 -1 15 2 12 6
-3 5 1 11 7 14 7 3 3 3 -9 0 -27 -6 -26 -9 -12 75 l12 65 20 -40 c20 -38 30
-124 28 -234 0 -47 -18 -100 -32 -100 -5 0 -9 -9 -9 -21 0 -12 4 -17 11 -14 6
4 8 9 5 12 -3 4 2 13 12 22 28 26 55 80 33 67 -5 -4 -6 9 -1 28 4 19 3 40 -1
47 -11 17 -7 109 4 109 5 0 6 -19 2 -42 -4 -24 -4 -40 1 -35 4 4 9 17 11 29 2
12 12 49 22 83 10 33 22 84 26 114 6 41 10 50 17 38 5 -11 5 -24 -2 -36 -15
-28 -12 -39 3 -16 16 24 29 67 17 60 -13 -8 -20 22 -13 55 3 17 3 30 -1 30 -3
0 -6 -9 -6 -19z"/>
<path d="M2570 1870 c28 -23 44 -29 80 -29 l45 1 -42 10 c-34 7 -43 14 -44 31
-1 17 -2 18 -6 5 -5 -18 -23 -25 -23 -9 0 5 -10 11 -22 14 -19 5 -16 1 12 -23z"/>
<path d="M1654 1804 c9 -76 18 -114 27 -114 4 0 3 15 -2 32 -5 18 -10 52 -11
76 -1 24 -6 46 -11 49 -6 3 -7 -13 -3 -43z"/>
<path d="M510 1823 c0 -6 5 -13 12 -15 7 -3 5 -11 -7 -26 -18 -20 -20 -21 -39
-4 -20 16 -20 16 -7 0 7 -10 9 -18 4 -18 -5 0 -10 -7 -10 -15 0 -8 4 -12 9 -9
4 3 16 0 25 -5 10 -6 13 -11 7 -11 -18 0 -25 -28 -9 -34 9 -3 12 0 8 10 -3 10
1 17 13 20 11 3 29 25 42 50 27 54 28 67 2 35 -11 -12 -17 -27 -14 -32 3 -5
-2 -12 -10 -15 -9 -3 -13 -11 -9 -17 3 -6 1 -7 -5 -3 -11 7 -6 31 11 54 7 9 5
18 -6 30 -10 9 -17 11 -17 5z"/>
<path d="M397 1768 c-5 -20 -13 -81 -21 -160 -2 -16 0 -28 3 -28 3 0 17 -10
31 -23 24 -22 70 -32 70 -15 0 4 8 8 18 8 14 -1 15 -2 2 -9 -8 -5 -19 -10 -25
-12 -18 -5 -33 -24 -28 -36 3 -7 9 -10 14 -7 5 3 7 9 4 14 -3 4 4 10 15 13 11
3 20 0 20 -6 0 -6 2 -8 5 -5 3 3 21 -10 39 -28 19 -19 41 -34 50 -34 25 0 19
-30 -6 -31 -13 -1 -32 -2 -43 -3 -11 0 -23 3 -27 9 -9 13 -19 2 -21 -24 -1
-17 -43 -46 -62 -42 -3 1 -18 -5 -35 -14 -40 -20 -50 -19 -50 8 0 18 -2 19
-10 7 -20 -31 -12 -43 25 -37 46 8 51 -4 14 -39 -29 -27 -45 -56 -90 -162 -30
-70 -21 -63 17 13 52 101 114 184 144 191 45 10 70 23 70 38 0 18 22 26 69 26
37 0 61 14 61 36 0 7 -26 29 -57 50 -84 55 -83 55 -65 86 12 20 22 26 43 23
22 -3 26 0 22 16 -3 10 -12 19 -19 19 -17 0 -18 16 -3 26 8 4 7 9 -2 15 -13 7
-31 -14 -45 -53 -3 -10 -15 -18 -25 -18 -10 0 -21 -4 -24 -10 -3 -5 -16 -9
-28 -9 -19 1 -19 2 -3 6 17 4 16 6 -5 17 -34 16 -45 57 -32 109 9 31 9 44 0
49 -9 6 -9 10 0 16 7 4 9 13 4 21 -6 9 -10 7 -14 -11z"/>
<path d="M1107 1772 c-10 -10 -17 -34 -18 -53 0 -27 -2 -30 -8 -14 -5 12 -8
-9 -8 -57 l1 -78 19 48 c18 46 42 161 34 168 -2 2 -11 -4 -20 -14z"/>
<path d="M1883 1770 c1 -14 9 -26 19 -28 12 -2 15 2 11 18 -4 15 -8 18 -13 9
-6 -8 -10 -6 -13 7 -4 13 -5 11 -4 -6z"/>
<path d="M1734 1736 c-4 -15 -11 -23 -18 -19 -6 3 -8 3 -4 -1 4 -5 -2 -17 -13
-29 -21 -23 -24 -33 -9 -42 6 -3 7 1 4 12 -5 17 -5 17 6 0 6 -9 8 -22 5 -27
-3 -6 -1 -10 4 -10 6 0 10 -3 10 -7 -3 -21 2 -33 15 -33 12 0 14 -13 12 -60
-1 -33 0 -60 4 -60 3 0 7 -23 8 -51 1 -48 7 -68 16 -58 2 2 0 29 -3 60 -4 30
-6 92 -6 138 0 74 -2 82 -18 77 -26 -6 -29 11 -13 74 8 30 13 57 11 59 -2 2
-7 -8 -11 -23z"/>
<path d="M2668 1691 c22 -16 23 -19 7 -34 -15 -16 -15 -17 4 -17 11 0 23 5 26
10 3 6 0 10 -7 10 -10 0 -10 2 1 9 10 7 8 12 -10 25 -32 22 -50 20 -21 -3z"/>
<path d="M508 1676 c-10 -7 -15 -16 -12 -19 8 -7 54 14 54 25 0 12 -23 9 -42
-6z"/>
<path d="M2426 1646 c8 -14 22 -23 30 -20 47 14 47 14 34 29 -10 12 -16 13
-28 3 -12 -10 -16 -10 -19 0 -3 6 -11 12 -19 12 -12 0 -12 -4 2 -24z"/>
<path d="M608 1620 c15 -16 25 -21 30 -14 4 6 14 14 22 17 9 3 4 6 -12 6 -14
1 -34 4 -44 8 -15 5 -14 2 4 -17z"/>
<path d="M1472 1600 c-15 -25 -15 -33 0 -24 8 5 9 -2 5 -26 -4 -18 -2 -51 4
-74 10 -35 13 -38 20 -21 8 18 8 17 6 -5 -1 -14 -7 -24 -13 -23 -7 1 -7 -13 0
-47 12 -58 30 -56 22 4 -5 40 -5 40 9 -9 17 -60 19 -75 4 -55 -9 12 -10 12 -5
-3 3 -10 6 -24 7 -30 0 -7 5 -1 10 12 10 24 6 50 -24 166 -6 22 -10 49 -9 60
1 11 -1 14 -4 8 -10 -23 -25 -14 -19 12 3 14 7 36 10 50 6 30 -5 33 -23 5z"/>
<path d="M286 1509 c-3 -17 -6 -46 -6 -64 0 -19 -9 -55 -21 -82 -39 -90 -42
-98 -41 -105 1 -3 -7 -32 -18 -64 -11 -31 -18 -59 -15 -62 2 -3 7 1 9 9 3 8
21 61 41 119 34 102 38 109 103 161 17 14 15 49 -2 49 -8 0 -18 -5 -22 -12 -4
-6 -3 -8 4 -4 6 3 13 2 17 -4 3 -6 -3 -10 -15 -10 -16 0 -20 -5 -16 -15 3 -8
1 -15 -5 -15 -7 0 -9 10 -4 28 4 15 8 32 9 39 1 7 5 16 9 19 11 11 8 26 -3 19
-6 -3 -7 1 -4 9 3 9 2 16 -4 16 -5 0 -12 -14 -16 -31z"/>
<path d="M2541 1531 c-9 -6 -1 -10 28 -13 24 -2 41 1 41 7 0 5 4 5 8 -2 8 -13
58 -11 72 3 12 12 -131 17 -149 5z"/>
<path d="M2316 1494 c-10 -26 -7 -44 8 -44 7 0 16 8 18 18 9 35 -14 59 -26 26z"/>
<path d="M393 1486 c-4 -7 -15 -16 -23 -20 -9 -4 -6 -5 6 -2 12 2 28 0 35 -5
11 -7 10 -9 -4 -9 -14 0 -17 -5 -12 -19 3 -11 1 -22 -5 -26 -6 -3 -8 -11 -4
-16 3 -5 0 -16 -6 -24 -9 -11 -9 -15 -1 -15 17 0 40 63 28 78 -5 7 -6 12 0 12
5 0 15 -6 22 -12 10 -11 11 -10 6 5 -4 10 -2 17 4 17 7 0 7 7 -1 25 -12 27
-33 33 -45 11z"/>
<path d="M2384 1471 c8 -13 46 -21 46 -9 0 6 7 7 16 4 8 -3 12 -2 9 4 -3 6
-22 10 -41 10 -19 0 -33 -4 -30 -9z"/>
<path d="M2202 1453 c12 -15 38 -17 38 -4 0 5 10 11 23 14 12 2 1 4 -25 3 -36
-1 -44 -4 -36 -13z"/>
<path d="M877 1426 c-4 -10 -3 -24 3 -31 5 -6 8 -14 5 -17 -3 -3 1 -11 10 -18
13 -11 14 -9 5 16 -5 16 -10 38 -12 49 -3 19 -4 19 -11 1z"/>
<path d="M844 1398 c2 -16 0 -28 -4 -28 -4 0 -15 -30 -24 -66 -9 -37 -24 -80
-32 -96 -9 -17 -13 -32 -10 -36 3 -3 11 10 18 28 10 30 12 32 20 14 5 -12 6
-7 2 15 -5 28 -3 33 9 28 9 -3 18 1 21 9 3 8 1 14 -4 14 -6 0 -1 9 10 20 24
24 28 49 5 30 -22 -18 -27 -9 -12 20 8 16 10 34 5 50 -7 24 -8 24 -4 -2z"/>
<path d="M2602 1370 c16 -17 37 -29 46 -28 10 2 16 -3 15 -9 -2 -7 5 -13 14
-13 24 0 -23 49 -64 66 -45 19 -46 18 -11 -16z"/>
<path d="M1880 1368 c-25 -6 -55 -11 -67 -12 -13 0 -23 -5 -23 -9 0 -10 45 -3
130 17 64 16 27 19 -40 4z"/>
<path d="M2296 1371 c-7 -10 51 -21 112 -21 62 0 114 -33 120 -76 5 -44 -32
-94 -121 -159 -29 -21 -35 -35 -14 -35 21 0 129 97 151 135 19 33 19 38 5 78
-23 62 -71 87 -171 87 -42 0 -79 -4 -82 -9z"/>
<path d="M980 1340 c-7 -16 -17 -30 -22 -30 -5 0 -6 6 -2 13 6 9 4 9 -8 -1 -8
-7 -32 -46 -53 -87 -21 -41 -42 -72 -47 -69 -10 7 -10 -7 0 -24 6 -9 14 -3 27
21 14 27 24 34 45 32 15 -1 32 -5 38 -9 17 -10 15 10 -3 28 -21 21 -19 31 17
84 33 48 43 72 28 72 -4 0 -13 -13 -20 -30z"/>
<path d="M2000 1339 c-115 -31 -153 -45 -157 -56 -8 -20 -43 -16 -43 5 0 10
-7 27 -16 38 -14 18 -15 18 -9 -6 25 -97 154 -305 184 -296 9 3 23 1 31 -4 13
-8 12 -10 -3 -10 -16 0 -17 -2 -3 -15 8 -8 19 -15 25 -15 6 0 8 -7 5 -15 -4
-10 0 -15 11 -15 10 0 13 5 9 12 -5 8 -2 9 9 5 10 -3 17 -2 17 3 0 4 -13 11
-30 15 -16 4 -30 11 -30 16 0 12 -3 12 55 -11 29 -11 42 -20 30 -20 -18 -1
-17 -2 4 -11 23 -9 21 -11 -38 -39 -35 -17 -69 -30 -76 -30 -8 0 -18 -7 -23
-15 -7 -14 -11 -13 -32 5 -24 21 -43 19 -22 -2 18 -18 14 -28 -10 -29 -13 -1
-5 -5 17 -8 49 -8 65 -4 58 15 -3 10 2 14 18 14 25 0 104 35 131 57 21 19 94
20 133 3 17 -7 33 -13 38 -12 4 1 7 -2 7 -8 0 -15 -20 -12 -67 10 -24 10 -43
16 -43 12 0 -7 66 -33 170 -66 83 -27 150 -69 246 -154 106 -94 114 -108 53
-98 -24 4 -96 12 -159 17 -63 5 -134 12 -157 15 -29 5 -43 3 -43 -5 0 -6 6
-11 14 -11 7 0 19 -7 26 -15 9 -11 32 -15 79 -15 76 0 309 -26 360 -40 37 -10
131 -70 131 -83 0 -5 -4 -5 -10 -2 -5 3 -10 1 -10 -4 0 -6 4 -11 9 -11 5 0 19
-21 32 -46 17 -35 19 -48 9 -54 -9 -6 -9 -9 0 -15 6 -4 9 -14 6 -22 -3 -8 -1
-11 4 -8 6 3 11 -4 11 -17 3 -45 6 -65 14 -77 4 -7 -1 -18 -11 -26 -18 -13
-17 -14 9 -13 27 2 28 4 22 43 -13 87 -27 145 -35 150 -5 3 -7 18 -4 34 5 23
-1 35 -33 67 -67 67 -163 146 -157 130 5 -14 2 -14 -26 -4 -32 11 -32 11 -11
23 22 11 21 13 -34 61 -82 71 -227 173 -245 172 -18 -1 -70 19 -70 27 0 3 17
-2 38 -10 30 -12 34 -12 18 -1 -19 15 -127 55 -206 76 l-45 12 40 21 c22 11
54 31 71 43 17 13 34 21 39 16 5 -4 5 -1 1 6 -4 6 -2 12 3 12 6 0 11 5 11 11
0 5 -5 7 -11 3 -6 -3 10 16 36 42 42 44 45 49 25 52 -32 5 -49 -5 -44 -25 6
-21 -22 -49 -122 -125 -63 -47 -129 -73 -119 -46 4 10 -10 19 -48 31 -29 9
-78 34 -107 54 -43 31 -62 54 -96 118 l-43 80 42 12 c23 7 89 24 147 38 58 15
108 29 112 33 11 11 -73 11 -112 1z"/>
<path d="M2290 1344 c0 -3 14 -10 30 -15 17 -6 30 -15 30 -20 0 -5 9 -9 20 -9
11 0 24 -8 28 -17 4 -10 14 -18 22 -18 8 0 14 -7 12 -16 -1 -9 4 -16 12 -16
13 0 13 4 1 27 -19 36 -35 48 -97 71 -59 21 -58 21 -58 13z"/>
<path d="M2633 1293 c4 -33 1 -45 -15 -60 -26 -23 -46 -59 -26 -48 7 5 21 15
31 23 16 14 17 14 14 -4 -3 -20 -47 -71 -47 -55 0 5 -13 5 -29 -2 -15 -5 -28
-17 -28 -26 0 -32 -3 -41 -14 -41 -6 0 -8 9 -3 22 6 19 4 21 -7 12 -8 -6 -32
-25 -54 -42 -22 -17 -66 -43 -97 -57 -66 -30 -74 -45 -24 -45 33 0 116 29 86
30 -13 0 -13 1 0 10 9 6 17 5 21 -2 9 -14 44 7 93 57 20 19 37 35 40 35 2 0
28 23 57 51 30 29 46 46 37 39 -28 -20 -23 12 7 48 29 34 33 72 9 72 -12 0
-15 -7 -12 -25 3 -14 -1 -30 -8 -36 -11 -9 -14 -5 -15 20 -2 44 -3 48 -12 58
-5 4 -6 -11 -4 -34z"/>
<path d="M806 1164 c-9 -9 -24 -17 -33 -18 -21 -3 -30 -26 -11 -26 8 0 27 14
43 30 29 30 30 43 1 14z"/>
<path d="M1387 1150 c4 -14 -2 -27 -17 -40 -29 -25 -33 -25 -21 -1 9 15 7 20
-9 24 -34 9 -35 -15 -2 -44 38 -34 39 -39 10 -40 -17 -1 -19 -2 -5 -6 10 -3
17 -14 17 -30 0 -21 -2 -24 -15 -13 -8 7 -15 8 -15 3 0 -11 40 -46 46 -40 11
10 13 54 5 84 -7 24 -6 33 5 37 16 6 20 71 5 80 -5 4 -7 -3 -4 -14z"/>
<path d="M1266 1141 c-10 -10 -14 -21 -9 -24 8 -5 53 26 53 37 0 13 -28 5 -44
-13z"/>
<path d="M267 1134 c5 -14 3 -15 -14 -6 -21 12 -43 0 -43 -23 0 -17 43 -13 57
5 15 18 17 40 3 40 -5 0 -7 -7 -3 -16z"/>
<path d="M681 1128 c-13 -33 3 -43 35 -21 22 14 24 19 11 21 -9 2 -17 8 -17
13 0 18 -21 9 -29 -13z"/>
<path d="M1610 1137 c0 -4 20 -44 45 -90 48 -88 62 -99 20 -16 -32 62 -65 116
-65 106z"/>
<path d="M811 1094 c-38 -31 -65 -80 -51 -89 6 -4 -1 -26 -16 -57 -14 -27 -23
-52 -21 -55 6 -5 58 103 55 114 -5 14 24 71 38 77 17 6 19 -15 3 -31 -7 -7 -7
-13 -1 -17 9 -5 36 74 28 82 -2 1 -18 -9 -35 -24z"/>
<path d="M152 1085 c-15 -33 -15 -38 1 -28 6 4 15 8 20 9 4 1 13 3 20 4 6 1 1
6 -13 10 -18 6 -20 8 -7 9 10 1 15 6 12 11 -10 17 -21 11 -33 -15z"/>
<path d="M210 1065 c0 -8 -9 -15 -19 -15 -11 0 -23 -5 -26 -11 -4 -6 -13 -8
-21 -5 -8 3 -14 4 -14 2 0 -3 -3 -13 -6 -23 -3 -10 -2 -14 3 -8 8 10 45 29 76
39 15 5 26 36 12 36 -3 0 -5 -7 -5 -15z"/>
<path d="M543 1041 c-10 -16 -9 -18 7 -14 11 3 17 9 14 14 -9 15 8 10 28 -8
16 -14 18 -14 18 -1 0 31 -49 37 -67 9z"/>
<path d="M702 1004 c-7 -14 -8 -23 -2 -19 18 11 10 -25 -10 -45 -23 -23 -27
-38 -5 -20 26 22 26 5 0 -20 -17 -16 -25 -19 -25 -9 0 12 -2 11 -10 -1 -17
-26 -11 -33 14 -16 14 8 26 11 28 6 2 -5 11 9 20 31 9 21 13 37 9 34 -5 -2 -7
16 -5 40 2 25 2 45 0 45 -1 0 -8 -12 -14 -26z"/>
<path d="M784 1018 c-4 -7 -3 -8 4 -4 16 9 15 3 -3 -42 l-15 -37 20 25 c11 14
20 35 20 48 0 24 -14 30 -26 10z"/>
<path d="M186 1012 c-3 -5 -22 -13 -41 -16 -19 -4 -35 -12 -35 -18 0 -6 7 -7
18 -3 9 4 27 10 40 12 23 6 38 20 29 29 -3 3 -8 1 -11 -4z"/>
<path d="M476 998 c-10 -9 -23 -15 -28 -12 -12 8 -48 -25 -48 -43 0 -10 6 -10
28 4 15 10 32 25 39 33 11 13 12 13 13 -3 0 -10 5 -15 10 -12 6 4 8 10 5 15
-3 5 6 10 20 12 l25 3 -23 11 c-18 8 -26 6 -41 -8z"/>
<path d="M247 1003 c-4 -3 -7 -16 -7 -29 0 -37 -11 -54 -34 -54 -28 0 -50 15
-42 29 4 6 2 11 -3 11 -6 0 -11 -9 -11 -21 0 -17 -5 -19 -30 -15 -17 2 -30 0
-30 -6 0 -5 6 -8 12 -6 7 3 19 -2 27 -10 13 -12 16 -12 25 1 8 10 18 12 34 6
23 -9 30 -33 12 -44 -5 -3 -10 -11 -10 -18 0 -8 3 -8 12 1 15 15 38 16 38 2 0
-6 -13 -13 -30 -16 -22 -5 -30 -12 -30 -27 0 -11 -3 -17 -7 -14 -3 4 -12 2
-19 -4 -22 -18 -28 15 -9 51 9 18 14 34 11 38 -3 3 -6 0 -6 -7 0 -7 -5 -9 -10
-6 -6 4 -9 3 -8 -2 1 -4 -3 -18 -10 -29 -6 -12 -11 -34 -10 -50 0 -16 -3 -51
-7 -78 -6 -34 -5 -47 3 -43 5 4 13 1 15 -5 3 -7 6 -4 6 7 1 12 -4 26 -9 31
-15 15 6 68 22 58 6 -4 8 -3 5 3 -4 6 0 16 8 23 12 10 15 9 15 -8 0 -11 6 -24
13 -30 18 -16 60 22 52 47 -3 11 0 29 6 40 10 15 10 23 1 34 -13 15 -1 67 16
67 4 0 17 7 28 16 19 15 18 15 -3 11 -22 -5 -28 5 -24 41 2 13 -2 15 -12 5z
m-27 -204 c0 -11 -7 -27 -15 -35 -13 -14 -15 -12 -15 14 0 16 3 32 7 35 12 13
23 7 23 -14z"/>
<path d="M342 971 c-38 -28 -66 -58 -45 -50 22 9 102 65 103 72 0 14 -17 7
-58 -22z"/>
<path d="M1806 981 c-3 -5 12 -11 33 -13 31 -3 37 -1 29 9 -12 15 -54 17 -62
4z"/>
<path d="M827 910 c3 -25 6 -53 6 -62 1 -9 4 -15 8 -12 4 2 5 -15 2 -38 -3
-33 -2 -39 6 -28 10 13 12 13 21 0 17 -26 11 6 -10 61 -12 29 -25 68 -30 88
-9 33 -9 32 -3 -9z"/>
<path d="M772 922 c-25 -16 -60 -242 -61 -399 -1 -46 -4 -53 -21 -53 -11 0
-20 -4 -20 -9 0 -5 9 -7 20 -4 19 5 20 0 20 -103 1 -60 3 -141 6 -180 4 -44 2
-80 -5 -92 -8 -15 -8 -22 2 -25 7 -3 5 -6 -5 -6 -10 -1 -18 -5 -18 -10 0 -5
-3 -16 -6 -25 -3 -9 -1 -16 5 -16 6 0 10 3 10 8 -3 18 2 32 11 32 6 0 10 -6
10 -14 0 -13 37 -33 45 -24 1 1 -3 30 -10 63 -17 86 -29 289 -16 280 6 -3 11
1 11 9 0 9 6 16 13 16 6 0 30 5 51 11 26 7 35 14 26 19 -8 5 -11 22 -7 51 10
78 15 87 53 86 19 -1 34 -4 34 -7 0 -25 -32 -104 -46 -114 -20 -15 -11 -38 11
-30 8 4 12 10 10 15 -3 5 1 19 9 31 8 13 15 26 16 31 0 4 0 15 0 25 1 34 25
-21 25 -58 0 -33 2 -35 34 -36 19 0 36 -5 39 -12 2 -8 -7 -12 -26 -12 -16 0
-35 -7 -42 -15 -7 -8 -20 -15 -29 -16 -9 0 1 -6 21 -12 41 -13 40 -24 -7 -47
-48 -23 -86 -21 -113 5 -16 17 -19 25 -10 29 7 3 0 3 -17 0 l-30 -6 25 21 25
21 -22 0 c-13 0 -23 -4 -23 -9 0 -5 -2 -16 -6 -24 -3 -9 6 -19 26 -27 42 -18
67 -55 50 -75 -10 -12 -10 -18 0 -30 6 -8 24 -50 39 -95 26 -76 41 -106 41
-83 0 5 -8 35 -18 66 -19 55 -19 56 1 59 22 3 33 19 42 61 4 19 12 27 26 27
11 0 17 5 14 10 -14 22 -37 8 -55 -34 -24 -56 -32 -61 -58 -31 l-22 25 43 40
c48 45 64 48 100 20 32 -25 59 -25 75 0 7 11 19 20 27 20 8 0 15 4 15 9 0 10
-72 41 -95 41 -8 0 -15 4 -15 9 0 12 29 23 41 15 12 -7 -13 49 -26 58 -5 4
-20 8 -32 8 -19 0 -23 5 -23 33 0 18 -7 42 -15 53 -8 10 -15 31 -15 46 0 25
-2 27 -24 17 -17 -8 -33 -8 -54 -1 l-29 10 -2 -66 c-1 -36 -4 -69 -7 -74 -3
-5 0 -15 6 -23 10 -12 8 -15 -11 -15 -13 0 -37 -7 -53 -15 -15 -8 -30 -15 -31
-15 -2 0 1 16 5 35 5 23 4 36 -4 39 -7 3 -8 7 -1 13 6 4 10 37 10 73 0 124 20
299 44 378 5 17 9 32 8 32 -1 0 -8 -4 -15 -8z m228 -577 c-14 -16 -50 -21 -50
-6 0 11 18 19 44 20 15 1 16 -2 6 -14z m35 -45 c3 -5 15 -10 26 -10 11 0 17
-4 14 -10 -9 -15 -42 -12 -49 5 -3 8 -12 12 -21 9 -8 -3 -12 -10 -9 -15 3 -5
10 -6 16 -3 6 4 8 2 5 -3 -4 -6 3 -14 16 -18 14 -4 17 -8 9 -12 -7 -3 -21 2
-31 11 -10 9 -23 16 -29 16 -14 0 -14 2 -6 24 7 18 49 22 59 6z"/>
<path d="M1667 875 c4 -27 10 -51 14 -53 5 -2 4 -12 -1 -22 -6 -12 -6 -21 -1
-25 19 -11 20 32 2 90 l-19 60 5 -50z"/>
<path d="M2195 875 c-16 -7 -34 -11 -41 -8 -6 2 -64 -21 -130 -52 -65 -31
-126 -54 -136 -52 -10 3 -16 1 -12 -4 3 -5 0 -9 -5 -9 -6 0 -11 -7 -11 -15 0
-18 17 -20 22 -4 6 19 68 -19 81 -49 33 -72 84 -146 130 -188 71 -64 116 -91
226 -137 94 -38 214 -108 240 -140 7 -9 20 -17 27 -17 8 0 14 -5 14 -11 0 -5
-5 -7 -12 -3 -7 4 -8 3 -4 -5 4 -6 11 -9 16 -6 12 7 53 -73 46 -90 -2 -7 2
-16 10 -19 8 -3 14 -9 13 -13 -5 -28 3 -53 16 -53 18 0 19 -4 -4 61 -62 181
-191 343 -341 429 -41 24 -109 66 -150 93 -41 28 -68 43 -60 33 18 -23 101
-79 213 -145 48 -29 97 -65 109 -81 12 -17 27 -30 33 -30 16 0 50 -38 42 -46
-4 -4 -13 -1 -21 5 -8 7 -20 10 -26 6 -6 -4 -17 -1 -23 7 -7 8 -41 26 -77 42
-118 51 -231 108 -260 132 -15 13 -32 24 -37 24 -14 0 -44 35 -37 42 3 3 -11
28 -30 56 -20 27 -36 56 -36 64 0 8 -16 22 -36 32 -20 9 -34 19 -31 22 3 3 27
-6 54 -20 26 -14 41 -25 33 -26 -19 -1 69 -49 90 -49 9 0 5 6 -10 15 l-25 15
25 -6 c14 -4 45 -11 70 -16 25 -6 52 -13 60 -16 8 -3 29 -8 45 -10 28 -4 29
-3 10 10 -11 8 -33 17 -50 20 -54 10 -208 58 -243 76 l-34 17 64 27 c34 15 73
27 86 27 12 0 22 4 22 9 0 5 29 19 65 31 36 12 63 26 59 31 -3 5 -6 9 -7 8 -1
0 -15 -7 -32 -14z m115 -486 c41 -17 82 -38 90 -46 13 -14 13 -14 -5 -4 -11 5
-55 24 -97 42 -72 28 -91 39 -70 39 4 0 41 -14 82 -31z m195 -80 c4 -6 14 -8
23 -4 9 3 14 3 10 0 -3 -3 5 -17 18 -30 25 -25 31 -45 14 -45 -5 0 -9 5 -7 12
1 7 -5 12 -13 13 -8 0 -32 10 -52 23 -39 25 -53 41 -19 22 29 -15 39 -12 17 5
-11 8 -15 15 -9 15 7 0 15 -5 18 -11z"/>
<path d="M313 860 c-10 -11 -23 -20 -30 -20 -7 0 -17 -9 -23 -20 -20 -37 14
-23 49 20 32 40 35 57 4 20z"/>
<path d="M706 864 c-4 -9 -12 -14 -22 -10 -8 3 -12 2 -9 -3 3 -5 0 -13 -6 -16
-5 -4 -8 -13 -5 -20 2 -7 -1 -15 -8 -18 -16 -6 -51 -157 -39 -166 6 -4 5 -19
-4 -41 -11 -29 -12 -30 -8 -7 4 20 2 27 -6 22 -6 -4 -9 -18 -6 -31 2 -13 0
-24 -4 -24 -13 0 -11 -34 4 -49 10 -11 10 -14 0 -18 -7 -3 -13 -19 -13 -36 0
-17 -6 -38 -14 -46 -16 -20 -30 -111 -16 -111 6 0 10 -5 10 -11 0 -5 -4 -8 -9
-5 -14 9 -20 -32 -20 -134 0 -58 5 -100 12 -109 9 -12 9 -13 0 -7 -8 4 -13 1
-13 -8 0 -9 7 -16 15 -16 13 0 15 11 13 58 -3 77 9 201 33 325 10 56 19 119
19 139 0 20 4 39 9 42 5 4 15 39 22 79 7 39 16 80 21 90 6 12 5 24 -4 35 -11
14 -11 15 5 9 11 -4 16 -3 12 3 -3 6 -2 10 3 10 9 0 45 81 38 87 -2 2 -6 -4
-10 -13z"/>
<path d="M1765 851 c32 -37 96 -85 89 -67 -3 9 -10 16 -15 16 -5 0 -9 5 -9 11
0 5 6 7 13 3 6 -4 3 2 -7 14 -22 26 -28 28 -20 7 4 -8 1 -15 -5 -15 -6 0 -11
3 -11 8 0 4 -13 16 -28 26 l-27 20 20 -23z"/>
<path d="M1726 852 c-9 -15 15 -62 31 -62 8 0 11 -5 8 -10 -11 -18 135 -280
157 -280 5 0 6 -5 3 -10 -8 -14 124 -142 138 -133 5 3 12 1 16 -4 3 -6 35 -29
71 -53 36 -24 80 -57 97 -74 29 -26 63 -43 63 -29 0 15 -23 43 -35 43 -8 0
-15 5 -15 11 0 6 -7 8 -16 5 -8 -3 -13 -2 -10 3 3 4 -10 22 -29 40 -33 29 -50
31 -22 2 10 -11 8 -12 -9 -3 -11 6 -27 18 -34 27 -11 13 -10 15 4 9 9 -3 16
-1 16 4 0 6 -9 13 -19 17 -37 11 -147 90 -182 130 -42 47 -99 130 -99 143 0 5
-10 20 -22 33 -13 14 -23 29 -23 34 -1 22 -55 125 -65 125 -6 0 -9 4 -6 8 2 4
1 14 -3 21 -6 8 -11 9 -15 3z m334 -481 c3 -2 -2 0 -10 4 -33 19 -91 70 -106
94 -10 14 12 -1 47 -33 35 -33 66 -62 69 -65z"/>
<path d="M1708 803 c-2 -10 1 -27 8 -38 6 -11 24 -66 38 -122 15 -56 34 -119
42 -140 30 -71 29 -78 -26 -116 -13 -9 -20 -17 -15 -18 6 0 18 -2 28 -4 10 -2
28 6 39 17 11 11 21 18 22 16 2 -1 17 -25 35 -51 20 -29 69 -76 125 -117 127
-95 164 -133 178 -186 12 -43 13 -44 55 -44 l44 0 -17 33 c-18 35 -73 97 -86
97 -5 0 -21 14 -36 30 -15 17 -37 32 -49 35 -22 4 -73 33 -73 42 0 3 16 -5 35
-17 19 -12 35 -17 35 -11 0 6 -11 16 -25 23 -13 6 -22 14 -20 18 2 4 -10 20
-28 36 l-32 29 29 -33 c17 -17 25 -32 19 -32 -25 0 -110 69 -144 117 -20 29
-40 49 -44 45 -5 -4 -5 -2 -2 4 4 7 -6 40 -22 76 -16 35 -32 86 -37 113 -6 44
-57 201 -68 213 -2 2 -6 -5 -8 -15z m499 -717 c12 -13 27 -34 33 -46 11 -20
10 -21 -10 -15 -15 5 -20 4 -16 -4 4 -6 3 -11 -2 -11 -6 0 -13 17 -17 38 -4
20 -11 43 -17 50 -20 23 8 12 29 -12z"/>
<path d="M2145 776 c14 -17 32 -46 41 -63 8 -18 15 -33 17 -33 1 0 2 16 3 34
0 19 -3 34 -7 33 -4 -1 -6 3 -5 8 0 6 4 9 9 8 4 -2 7 2 7 8 0 7 -10 9 -26 5
-21 -6 -25 -4 -21 7 4 10 -3 17 -19 20 l-24 4 25 -31z"/>
<path d="M991 783 c-2 -44 40 -132 85 -180 25 -26 41 -39 35 -27 -5 11 -17 26
-25 34 -9 7 -16 21 -16 32 0 10 -4 17 -9 14 -15 -9 -33 21 -52 87 -10 34 -18
52 -18 40z"/>
<path d="M1627 793 c-9 -2 -15 -9 -12 -14 4 -5 1 -9 -4 -9 -6 0 -11 -5 -11
-11 0 -7 -8 -18 -17 -26 -16 -12 -15 -13 12 -7 17 4 37 13 46 21 10 8 19 11
21 6 3 -4 3 -2 1 5 -1 8 -3 20 -3 28 0 14 -2 15 -33 7z"/>
<path d="M286 777 c-16 -11 -16 -15 -3 -25 12 -11 20 -8 42 13 l28 25 -25 0
c-13 0 -32 -6 -42 -13z"/>
<path d="M836 738 c-3 -7 -7 -46 -10 -86 -4 -59 -2 -72 8 -63 9 7 11 28 8 64
-2 31 1 63 7 76 8 14 8 21 1 21 -6 0 -12 -6 -14 -12z"/>
<path d="M2220 747 c0 -3 6 -12 13 -19 7 -7 18 -24 24 -38 10 -22 12 -22 12
-5 0 11 -3 25 -7 30 -10 15 -42 38 -42 32z"/>
<path d="M215 722 c-21 -7 -33 -32 -15 -32 6 0 10 5 10 10 0 26 16 6 18 -22 3
-34 17 -58 36 -58 7 0 32 -10 57 -21 25 -13 69 -23 104 -25 33 -2 54 -1 48 2
-7 3 -13 12 -13 19 0 10 -16 13 -60 12 -33 -1 -60 1 -60 4 0 8 -68 39 -85 39
-13 0 -22 39 -16 73 0 4 0 7 -1 6 -2 -1 -12 -4 -23 -7z"/>
<path d="M561 684 c-12 -26 -20 -48 -17 -51 2 -3 14 17 25 43 27 61 21 67 -8
8z"/>
<path d="M1337 723 c-23 -4 -26 -7 -16 -19 6 -8 17 -14 23 -14 6 0 6 4 -2 9
-10 6 -7 10 12 13 19 4 24 2 17 -6 -7 -8 -4 -16 9 -23 15 -10 21 -9 32 4 11
14 10 15 -9 9 -18 -6 -20 -4 -16 14 6 21 5 21 -50 13z"/>
<path d="M904 678 c4 -13 9 -38 13 -55 3 -18 10 -33 15 -33 6 0 8 6 5 14 -3 8
-11 33 -17 55 -6 23 -13 41 -17 41 -3 0 -2 -10 1 -22z"/>
<path d="M1680 679 c0 -5 -4 -8 -8 -5 -10 6 -105 -14 -112 -24 -3 -4 -15 -10
-26 -14 -17 -5 -23 -2 -28 19 -4 14 -11 25 -16 25 -6 0 -6 -10 1 -26 5 -15 8
-28 6 -30 -2 -2 -42 -10 -90 -17 -48 -8 -91 -18 -95 -22 -4 -5 1 -5 11 -2 9 4
17 2 17 -4 0 -6 6 -7 13 -2 14 9 23 10 104 19 78 7 76 10 100 -161 7 -49 7
-49 13 -15 5 35 -8 110 -29 163 -12 31 -17 27 96 67 l52 18 25 -61 c29 -73 32
-66 8 18 -10 33 -23 61 -30 63 -6 1 -12 -3 -12 -9z"/>
<path d="M158 642 c-5 -16 -2 -22 11 -22 10 0 23 -12 29 -26 14 -29 28 -25 34
9 3 16 -1 28 -13 35 -14 9 -16 8 -12 -11 4 -19 2 -18 -19 7 -24 29 -25 29 -30
8z"/>
<path d="M106 616 c2 -16 4 -44 4 -63 0 -28 2 -32 14 -21 9 9 11 20 5 36 -6
15 -5 21 1 17 6 -3 10 5 10 19 0 18 -4 24 -14 20 -8 -3 -16 0 -19 8 -2 7 -3 0
-1 -16z"/>
<path d="M980 628 c0 -5 -6 -8 -13 -5 -7 3 -13 -3 -13 -13 0 -10 5 -16 10 -12
6 3 29 6 51 5 35 -1 36 0 7 4 -29 4 -32 6 -17 17 15 10 14 12 -4 13 -12 1 -21
-3 -21 -9z"/>
<path d="M515 612 c-30 -6 -43 -22 -17 -22 15 0 20 -4 16 -15 -7 -17 16 -12
49 11 19 12 7 31 -12 20 -5 -4 -11 -3 -13 2 -1 4 -12 6 -23 4z"/>
<path d="M2249 595 c18 -9 60 -22 92 -30 114 -30 274 -88 294 -106 12 -12 24
-43 30 -77 9 -48 15 -60 43 -77 112 -68 157 -102 174 -132 11 -18 24 -30 29
-27 5 3 8 1 7 -5 -2 -6 17 -23 42 -38 40 -23 43 -24 26 -5 -17 19 -17 22 -3
22 10 0 17 8 17 18 0 11 -3 13 -8 5 -4 -6 -19 -10 -34 -10 -14 1 -25 4 -23 6
9 8 -68 90 -78 84 -6 -4 -8 0 -4 10 4 11 2 14 -9 10 -8 -3 -25 4 -37 15 -12
11 -37 27 -55 36 -18 9 -37 28 -42 42 -13 33 -13 34 8 35 14 0 14 2 -3 9 -11
5 -15 9 -10 9 6 1 4 5 -3 10 -9 5 -2 8 19 9 22 0 38 -6 47 -19 7 -10 19 -19
25 -19 7 0 4 5 -5 11 -10 5 -18 17 -18 24 0 8 -9 15 -21 15 -28 0 -59 18 -59
35 0 20 -21 30 -31 14 -7 -11 -9 -11 -9 3 0 18 -63 42 -210 78 -47 12 -105 30
-129 41 -24 10 -55 19 -70 19 -25 -1 -24 -1 8 -15z"/>
<path d="M178 567 c-11 -27 -10 -65 3 -72 14 -10 15 -6 9 45 -4 33 -7 40 -12
27z"/>
<path d="M1608 563 c-9 -11 -18 -49 -22 -94 l-7 -77 34 -21 c29 -18 39 -19 66
-10 17 6 38 8 47 5 9 -4 12 -2 8 5 -4 7 -21 9 -45 5 -32 -5 -40 -2 -58 19 -28
37 -35 78 -18 112 8 15 12 34 10 41 -3 6 0 12 6 12 6 0 11 -4 11 -8 0 -5 6 -9
13 -9 6 0 21 -4 32 -9 16 -6 18 -5 10 7 -5 8 -2 6 8 -4 9 -11 17 -31 18 -46
l1 -26 13 30 c12 28 11 30 -23 57 -39 32 -43 33 -60 16 -9 -9 -12 -9 -12 0 0
17 -14 15 -32 -5z"/>
<path d="M1836 538 c32 -62 114 -185 136 -204 l23 -19 -21 25 c-19 23 -72 106
-123 193 -28 46 -38 49 -15 5z"/>
<path d="M1045 543 c-11 -2 -27 -7 -35 -10 -8 -4 -18 -7 -22 -7 -5 -1 -8 -5
-8 -11 1 -10 47 -8 65 3 5 3 19 6 30 6 11 1 22 6 25 11 6 11 -24 16 -55 8z"/>
<path d="M2695 541 c55 -5 69 -9 67 -21 -3 -12 -1 -13 10 -2 21 21 -9 32 -82
30 l-65 -2 70 -5z"/>
<path d="M492 514 c-7 -14 -17 -22 -22 -19 -6 3 -10 2 -10 -4 0 -5 5 -11 11
-13 7 -2 6 -22 -5 -63 -8 -33 -17 -96 -20 -140 l-6 -80 16 95 c25 158 37 193
65 201 l24 7 -23 1 c-19 1 -22 5 -17 21 9 28 0 25 -13 -6z"/>
<path d="M1416 531 c-5 -8 5 -20 30 -34 14 -8 14 26 0 35 -15 10 -24 10 -30
-1z"/>
<path d="M1746 495 c-3 -9 -6 -30 -6 -46 0 -16 -4 -29 -10 -29 -5 0 -10 -7
-10 -15 0 -8 5 -15 10 -15 11 0 14 7 24 53 4 15 11 25 16 22 6 -4 8 -11 5 -16
-4 -5 1 -9 9 -9 23 0 20 17 -8 46 -20 22 -24 24 -30 9z"/>
<path d="M2817 477 c-3 -9 -14 -17 -23 -17 -13 0 -11 -5 9 -20 14 -11 34 -20
45 -20 10 0 27 -9 37 -20 10 -11 22 -17 27 -14 5 3 -1 17 -13 31 -16 17 -30
22 -46 18 -12 -3 -25 -1 -28 5 -3 5 2 10 12 10 11 0 14 3 7 8 -6 4 -13 14 -16
21 -3 12 -6 12 -11 -2z"/>
<path d="M1570 371 c0 -7 -4 -9 -10 -6 -5 3 -10 -1 -10 -9 0 -9 -4 -16 -9 -16
-5 0 -11 -7 -15 -15 -5 -13 -2 -13 18 1 25 16 41 43 31 52 -3 3 -5 0 -5 -7z"/>
<path d="M2826 355 c18 -14 17 -15 -11 -9 -16 3 -36 7 -42 10 -7 2 -13 -1 -13
-6 0 -6 12 -10 28 -10 18 0 35 -10 54 -32 23 -28 26 -29 21 -10 -3 12 -9 22
-14 22 -5 0 -9 4 -9 10 0 5 8 7 18 4 12 -4 10 0 -7 15 -13 12 -28 21 -34 21
-6 0 -2 -7 9 -15z"/>
<path d="M1751 318 c-21 -24 -40 -37 -50 -33 -9 2 -22 1 -29 -4 -22 -14 26
-21 54 -9 13 6 31 22 39 35 9 12 25 23 38 24 15 0 17 2 7 6 -8 3 -17 9 -20 12
-3 4 -20 -10 -39 -31z"/>
<path d="M1705 340 c-3 -5 -17 -10 -30 -10 -13 0 -27 -5 -31 -11 -4 -8 3 -9
26 -4 21 5 35 3 40 -5 5 -7 9 -2 12 14 5 26 -5 35 -17 16z"/>
<path d="M1608 314 c-3 -3 -20 -6 -37 -6 -38 -1 -38 -6 1 -37 33 -26 48 -18
48 27 0 23 -3 26 -12 16z"/>
<path d="M1820 304 c0 -8 5 -12 11 -8 6 3 26 -8 44 -26 30 -29 32 -34 22 -60
-10 -27 -12 -28 -29 -13 -9 8 -22 31 -29 50 -6 19 -13 32 -15 30 -3 -2 0 -16
5 -31 11 -27 3 -34 -17 -14 -17 17 -42 19 -42 3 0 -26 -31 -46 -61 -40 -21 5
-29 3 -29 -7 0 -7 -3 -24 -7 -37 -4 -17 -3 -22 5 -17 7 4 12 17 12 30 0 19 4
22 29 18 22 -3 33 2 49 23 l21 27 36 -22 c58 -36 75 -69 75 -144 0 -36 3 -66
8 -66 10 0 8 132 -2 149 -5 7 -3 30 5 54 l13 40 -43 39 c-47 41 -61 46 -61 22z"/>
<path d="M1190 293 c0 -15 31 -158 37 -173 3 -8 6 -18 5 -21 -3 -19 28 -94 40
-97 13 -2 12 11 -6 87 -12 49 -24 85 -27 79 -4 -5 -9 -3 -12 6 -4 9 -2 16 3
16 15 0 12 34 -5 56 -8 10 -15 27 -15 37 0 9 -4 17 -10 17 -5 0 -10 -3 -10 -7z"/>
<path d="M1130 245 c1 -39 -16 -160 -19 -139 -2 16 -70 93 -93 105 -12 6 -5
-4 14 -24 20 -20 48 -52 63 -72 15 -19 30 -33 33 -30 3 3 5 26 3 52 -2 41 0
45 14 33 15 -13 18 -70 3 -70 -4 0 -8 -7 -8 -16 0 -9 7 -14 17 -12 13 2 16 15
16 73 0 47 -4 69 -12 68 -20 -5 -12 15 9 22 11 3 20 11 20 16 0 5 -12 1 -27
-8 -23 -15 -26 -16 -21 -2 3 9 2 22 -3 30 -6 10 -9 2 -9 -26z"/>
<path d="M1625 260 c-7 -22 -35 -26 -53 -8 -9 9 -12 9 -12 0 0 -7 12 -17 26
-22 24 -10 25 -13 23 -75 -2 -56 1 -68 19 -86 12 -11 22 -26 22 -33 0 -18 28
-41 38 -31 4 4 1 10 -6 12 -6 3 -10 9 -6 14 3 5 0 9 -6 9 -6 0 -9 4 -5 10 3 5
-3 18 -15 30 -16 16 -20 33 -20 94 0 41 5 78 10 81 13 8 13 25 1 25 -5 0 -13
-9 -16 -20z"/>
<path d="M2293 176 c3 -6 8 -10 13 -9 5 1 10 -8 11 -20 5 -56 27 -147 36 -147
5 0 7 9 4 20 -7 27 1 25 13 -3 8 -17 9 -11 4 23 -8 62 -47 147 -68 147 -9 0
-15 -5 -13 -11z"/>
<path d="M980 171 c0 -5 5 -13 10 -16 6 -3 10 -11 10 -16 0 -6 -4 -8 -9 -4 -5
3 -5 -11 1 -32 14 -52 21 -57 13 -9 l-8 39 34 -24 c19 -13 39 -31 46 -39 7 -8
13 -11 13 -6 0 4 -25 33 -55 62 -30 30 -55 50 -55 45z"/>
<path d="M441 143 c-1 -30 19 -126 30 -137 4 -5 2 18 -6 50 -7 32 -15 70 -18
84 -4 22 -4 23 -6 3z"/>
<path d="M1030 35 c0 -23 5 -35 14 -35 10 0 12 7 9 21 l-6 22 30 -22 c17 -13
36 -19 46 -15 21 8 22 24 3 24 -10 0 -13 8 -11 21 4 21 4 21 -15 4 -19 -17
-21 -17 -38 -2 -27 24 -32 21 -32 -18z"/>
</g>
</svg>
